<svg width="24" height="24" viewBox="0 0 24 24" fill="none" xmlns="http://www.w3.org/2000/svg">
<path d="M22.5599 11.9995C22.5599 12.2795 22.3399 12.4995 22.0599 12.4995L3.33992 12.4995L10.8999 19.1195C11.0999 19.2995 11.1199 19.6195 10.9399 19.8195C10.8399 19.9395 10.6999 19.9795 10.5599 19.9795C10.4399 19.9795 10.3199 19.9395 10.2199 19.8595L1.67992 12.3795C1.67992 12.3795 1.63992 12.2795 1.59992 12.2195C1.59992 12.2195 1.55992 12.1995 1.55992 12.1795C1.55992 12.1795 1.55992 12.1595 1.55992 12.1395C1.53992 12.0595 1.53992 11.9995 1.55992 11.8995C1.55992 11.8795 1.55992 11.8395 1.57992 11.8195C1.59992 11.7595 1.57992 11.6995 1.63992 11.6595C1.63992 11.6595 1.67992 11.6595 1.69992 11.6195L10.2599 4.11948C10.4599 3.93948 10.7799 3.95948 10.9599 4.15948C11.1399 4.35948 11.1199 4.67948 10.9199 4.85948L3.35992 11.4795L22.0599 11.4795C22.3399 11.4795 22.5599 11.6995 22.5599 11.9795V11.9995Z" fill="#0046C0"/>
</svg>
