<svg width="24" height="24" viewBox="0 0 24 24" fill="none" xmlns="http://www.w3.org/2000/svg">
<g clip-path="url(#clip0_773_47864)">
<path d="M23.66 7.6875C23.28 7.1625 22.66 6.84375 22 6.84375H5.2L4.84 5.38125C4.58 4.3125 3.58 3.5625 2.4 3.5625H0.5C0.22 3.5625 0 3.76875 0 4.03125C0 4.29375 0.22 4.5 0.5 4.5H2.42C3.12 4.5 3.72 4.95 3.88 5.5875L4.32 7.3875C4.32 7.3875 4.32 7.40625 4.32 7.425L6.36 15.7313H6.22C4.98 15.7313 3.98 16.6875 3.98 17.8313C3.98 18.975 5 19.9312 6.22 19.9312H6.4C6.14 20.2688 5.96 20.6625 5.96 21.1125C5.96 22.275 6.96 23.2313 8.2 23.2313C9.44 23.2313 10.44 22.275 10.44 21.1125C10.44 20.6625 10.26 20.2688 10 19.9312H13.88C13.62 20.2688 13.44 20.6625 13.44 21.1125C13.44 22.275 14.44 23.2313 15.68 23.2313C16.92 23.2313 17.92 22.275 17.92 21.1125C17.92 19.95 16.92 19.0125 15.7 19.0125C15.7 19.0125 15.7 19.0125 15.68 19.0125H6.24C5.54 19.0125 5 18.4875 5 17.85C5 17.2125 5.56 16.6875 6.24 16.6875H18.28C19.22 16.6875 20.06 16.2 20.48 15.4313L23.82 9.45C24.08 8.86875 24.02 8.2125 23.64 7.6875M8.22 22.3313C7.54 22.3313 6.98 21.8063 6.98 21.15C6.98 20.4938 7.54 19.9875 8.22 19.9875C8.9 19.9875 9.46 20.5125 9.46 21.15C9.46 21.7875 8.9 22.3313 8.22 22.3313ZM16.98 21.15C16.98 21.7875 16.42 22.3313 15.74 22.3313C15.06 22.3313 14.5 21.8063 14.5 21.15C14.5 20.4938 15.06 19.9875 15.74 19.9875C16.42 19.9875 16.98 20.5125 16.98 21.15ZM22.92 9.05625L19.6 15C19.34 15.4688 18.84 15.75 18.28 15.75H7.4L5.44 7.78125H22C22.34 7.78125 22.64 7.93125 22.82 8.19375C23.02 8.45625 23.04 8.775 22.92 9.0375" fill="#0046C0"/>
</g>
<defs>
<clipPath id="clip0_773_47864">
<rect width="24" height="22.5" fill="white" transform="translate(0 0.75)"/>
</clipPath>
</defs>
</svg>
