<svg width="16" height="17" viewBox="0 0 16 17" fill="none" xmlns="http://www.w3.org/2000/svg">
  <g clip-path="url(#clip0_1989_2407)">
    <path
      d="M13.2 2.32227H2.8C1.24444 2.32227 0 3.56671 0 5.12228V10.9C0 12.4556 1.24444 13.7 2.8 13.7H13.2444C14.8 13.7 16.0444 12.4556 16.0444 10.9V5.12228C16 3.56671 14.7556 2.32227 13.2 2.32227ZM2.8 3.38893H13.2444C14.1778 3.38893 14.9778 4.14449 14.9778 5.12228V6.0556H1.06667V5.12228C1.06667 4.18893 1.82222 3.38893 2.8 3.38893ZM13.2 12.6334H2.8C1.86667 12.6334 1.06667 11.8778 1.06667 10.9V8.01116H14.9333V10.9C14.9333 11.8778 14.1778 12.6334 13.2 12.6334Z"
      fill="#404040" />
    <path
      d="M7.68884 9.7002H2.79994C2.48883 9.7002 2.2666 9.92244 2.2666 10.2335C2.2666 10.5446 2.48883 10.7669 2.79994 10.7669H7.68884C7.99992 10.7669 8.22216 10.5446 8.22216 10.2335C8.22216 9.92244 7.95548 9.7002 7.68884 9.7002Z"
      fill="#404040" />
    <path
      d="M12.2223 9.7002H9.86672C9.55564 9.7002 9.3334 9.92244 9.3334 10.2335C9.3334 10.5446 9.55564 10.7669 9.86672 10.7669H12.2223C12.5334 10.7669 12.7556 10.5446 12.7556 10.2335C12.7556 9.92244 12.5334 9.7002 12.2223 9.7002Z"
      fill="#404040" />
  </g>
  <defs>
    <clipPath id="clip0_1989_2407">
      <rect width="16" height="16" fill="white" transform="translate(0 0.5)" />
    </clipPath>
  </defs>
</svg>