<svg width="18" height="18" viewBox="0 0 18 18" fill="none" xmlns="http://www.w3.org/2000/svg">
<path d="M12.7955 10.7686C12.5844 10.663 11.5815 10.1352 11.4231 10.0296C11.2119 9.97684 11.1064 9.92406 10.948 10.1352C10.7897 10.3464 10.3674 10.7686 10.2618 10.927C10.1562 11.0853 9.99785 11.0853 9.83951 10.9798C9.62834 10.8742 8.99493 10.6103 8.20312 9.87128C7.62249 9.29065 7.20019 8.6044 7.09463 8.39328C6.98907 8.18211 7.09463 8.07655 7.20019 7.97099C7.3058 7.86543 7.41136 7.75982 7.51692 7.60148C7.62249 7.44313 7.67527 7.39035 7.72805 7.28474C7.78088 7.1264 7.78088 7.02084 7.72805 6.91528C7.67527 6.80967 7.3058 5.80674 7.14741 5.38445C6.98907 4.96216 6.83073 5.01499 6.67234 5.01499C6.56678 5.01499 6.40844 4.96216 6.30283 4.96216C6.14449 4.96216 5.93336 5.01499 5.72219 5.22611C5.51107 5.43723 4.98322 5.9123 4.93044 6.91528C4.87761 7.91821 5.61663 8.92113 5.66941 9.07948C5.72219 9.23782 6.98907 11.4021 9.04771 12.2994C11.1064 13.1968 11.1064 12.9328 11.4759 12.9328C11.8454 12.9328 12.6899 12.4578 12.9011 11.9827C13.1122 11.5076 13.1122 11.0853 13.0595 11.0325C13.1122 10.927 12.9539 10.8742 12.7955 10.7686Z" fill="white"/>
<path d="M8.99549 0.000244141C4.03359 0.000244141 0.0218657 4.01198 0.0218657 8.97385C0.0218657 10.5574 0.444149 12.141 1.23594 13.5135L0.0218657 17.1029C-0.0309226 17.2084 0.0218657 17.314 0.0746511 17.3668C0.127436 17.4196 0.233007 17.4724 0.338578 17.4196L3.87524 16.3639C5.40603 17.4196 7.14798 18.0002 8.99549 18.0002C13.9573 18.0002 17.9691 13.9885 17.9691 9.02663C17.9691 4.01198 13.9573 0.000244141 8.99549 0.000244141ZM8.99549 16.6806C7.57027 16.6806 6.14505 16.2583 4.93095 15.5193C4.667 15.361 4.45588 15.2026 4.19195 14.9915C4.13916 14.9387 4.08638 14.9387 4.03359 14.9387C3.98081 14.9387 3.98081 14.9387 3.92802 14.9387L1.81658 15.6249L2.55559 13.4079C2.60837 13.3551 2.55559 13.2495 2.5028 13.1967C2.34444 12.9328 2.18609 12.6689 2.02773 12.4049C1.49987 11.2964 1.18315 10.1351 1.18315 8.92107C1.28872 4.69819 4.71983 1.26711 8.99549 1.26711C13.2712 1.26711 16.7022 4.69819 16.7022 8.97385C16.7022 13.2495 13.2712 16.6806 8.99549 16.6806Z" fill="white"/>
</svg>
