<svg width="124" height="40" viewBox="0 0 124 40" fill="none" xmlns="http://www.w3.org/2000/svg">
<g clip-path="url(#clip0_9340_54031)">
<path d="M120 0.000244141H3.33333C1.49238 0.000244141 0 1.49263 0 3.33358V36.6669C0 38.5079 1.49238 40.0002 3.33333 40.0002H120C121.841 40.0002 123.333 38.5079 123.333 36.6669V3.33358C123.333 1.49263 121.841 0.000244141 120 0.000244141Z" fill="#2E2D33"/>
<path d="M48.6653 28.9452H46.577L45.4331 25.3909H41.4568L40.3672 28.9452H38.334L42.2734 16.8446H44.7066L48.6653 28.9452ZM45.0892 23.8997L44.0547 20.7399C43.9452 20.4172 43.7401 19.657 43.4376 18.4603H43.4008C43.2173 19.2227 43.0237 19.9827 42.8197 20.7399L41.8035 23.8997H45.0892ZM58.7962 24.4752C58.7962 25.9592 58.3907 27.1322 57.5796 27.9932C56.8532 28.7598 55.9511 29.1426 54.8742 29.1426C53.7119 29.1426 52.8769 28.7297 52.3684 27.9042H52.3317V32.5006H50.3712V23.0922C50.3712 22.1593 50.3463 21.2018 50.2985 20.2198H52.0227L52.1321 21.6028H52.1689C52.8227 20.5608 53.8149 20.0407 55.1464 20.0407C56.1874 20.0407 57.0564 20.4472 57.7516 21.2609C58.4486 22.0757 58.7962 23.1468 58.7962 24.4752ZM56.7989 24.5462C56.7989 23.6969 56.6058 22.9967 56.2177 22.4457C55.7938 21.8711 55.2246 21.5837 54.511 21.5837C54.0273 21.5837 53.5877 21.7437 53.1951 22.0593C52.8016 22.3776 52.5441 22.7931 52.4236 23.3077C52.3629 23.5477 52.3326 23.7442 52.3326 23.8987V25.3536C52.3326 25.9883 52.5293 26.5238 52.9229 26.9612C53.3165 27.3986 53.8277 27.6168 54.4567 27.6168C55.1952 27.6168 55.7699 27.3349 56.1809 26.773C56.5929 26.2102 56.7989 25.4682 56.7989 24.5462ZM68.9455 24.4752C68.9455 25.9592 68.5399 27.1322 67.7279 27.9932C67.0024 28.7598 66.1003 29.1426 65.0235 29.1426C63.8612 29.1426 63.0262 28.7297 62.5186 27.9042H62.4827V32.5006H60.5213V23.0922C60.5213 22.1593 60.4965 21.2018 60.4487 20.2198H62.1728L62.2822 21.6028H62.3191C62.9719 20.5608 63.9642 20.0407 65.2966 20.0407C66.3367 20.0407 67.2057 20.4472 67.9027 21.2609C68.5978 22.0757 68.9455 23.1468 68.9455 24.4752ZM66.9491 24.5462C66.9491 23.6969 66.7551 22.9967 66.367 22.4457C65.9431 21.8711 65.3757 21.5837 64.6612 21.5837C64.1792 21.5836 63.7127 21.7521 63.3444 22.0593C62.9508 22.3776 62.6942 22.7931 62.5737 23.3077C62.514 23.5477 62.4827 23.7442 62.4827 23.8987V25.3536C62.4827 25.9883 62.6795 26.5238 63.0712 26.9612C63.4648 27.3977 63.9761 27.6168 64.6069 27.6168C65.3453 27.6168 65.9201 27.3349 66.3312 26.773C66.7422 26.2102 66.9491 25.4682 66.9491 24.5462ZM80.2929 25.5518C80.2929 26.5812 79.9315 27.4186 79.206 28.0651C78.4087 28.7716 77.2988 29.1244 75.8726 29.1244C74.5557 29.1244 73.5001 28.8734 72.701 28.3706L73.1552 26.7548C74.0159 27.2695 74.9603 27.5277 75.9893 27.5277C76.7277 27.5277 77.3025 27.3622 77.7153 27.0331C78.1264 26.7039 78.3315 26.262 78.3315 25.711C78.3315 25.22 78.1622 24.8062 77.8229 24.4707C77.4855 24.1352 76.9217 23.8233 76.1347 23.5351C73.992 22.7449 72.9217 21.5874 72.9217 20.0652C72.9217 19.0705 73.2968 18.2548 74.0482 17.6202C74.7967 16.9846 75.7953 16.6672 77.0441 16.6672C78.1577 16.6672 79.0827 16.8591 79.8212 17.2419L79.3311 18.8222C78.6413 18.4512 77.8616 18.2657 76.9889 18.2657C76.2992 18.2657 75.7603 18.434 75.3742 18.7686C75.2175 18.9056 75.0927 19.0744 75.0081 19.2635C74.9235 19.4526 74.8812 19.6575 74.884 19.8642C74.884 20.3426 75.0707 20.7381 75.4458 21.0491C75.7723 21.3364 76.3654 21.6474 77.2262 21.9829C78.2791 22.4021 79.0524 22.8922 79.5499 23.4542C80.0456 24.0142 80.2929 24.7153 80.2929 25.5518ZM86.7748 21.6747H84.614V25.911C84.614 26.9885 84.9948 27.5268 85.7582 27.5268C86.1082 27.5268 86.399 27.4968 86.629 27.4367L86.6832 28.9089C86.2965 29.0517 85.7882 29.1235 85.1582 29.1235C84.384 29.1235 83.779 28.8898 83.3423 28.4233C82.9072 27.956 82.6884 27.1722 82.6884 26.0711V21.6728H81.401V20.218H82.6884V18.6204L84.614 18.0457V20.218H86.7748V21.6747ZM96.5257 24.5107C96.5257 25.8519 96.1382 26.9531 95.364 27.8142C94.5515 28.7007 93.474 29.1426 92.1307 29.1426C90.8357 29.1426 89.8048 28.718 89.0365 27.8687C88.2673 27.0194 87.8832 25.9474 87.8832 24.6553C87.8832 23.3032 88.2782 22.1957 89.0723 21.3346C89.864 20.4726 90.9323 20.0416 92.2757 20.0416C93.5707 20.0416 94.6123 20.4662 95.399 21.3164C96.1498 22.1412 96.5257 23.2059 96.5257 24.5107ZM94.4907 24.5735C94.4907 23.7687 94.3173 23.0786 93.9648 22.503C93.554 21.8065 92.9665 21.4592 92.2048 21.4592C91.4165 21.4592 90.8182 21.8074 90.4073 22.503C90.0548 23.0795 89.8815 23.7806 89.8815 24.6098C89.8815 25.4146 90.0548 26.1047 90.4073 26.6793C90.8315 27.3758 91.4232 27.7232 92.1873 27.7232C92.9357 27.7232 93.524 27.3686 93.9473 26.6612C94.3098 26.0747 94.4907 25.3772 94.4907 24.5735ZM102.897 21.9247C102.694 21.8882 102.487 21.8703 102.28 21.8711C101.59 21.8711 101.056 22.1284 100.681 22.644C100.355 23.0986 100.191 23.6732 100.191 24.3671V28.9452H98.2315L98.2498 22.9677C98.2498 21.962 98.2257 21.0463 98.1765 20.2207H99.884L99.9557 21.8902H100.011C100.217 21.3164 100.544 20.8545 100.991 20.5081C101.4 20.2053 101.896 20.0414 102.407 20.0407C102.589 20.0407 102.752 20.0534 102.897 20.0762V21.9247ZM111.666 24.1697C111.671 24.4644 111.647 24.7589 111.595 25.049H105.713C105.736 25.911 106.021 26.5702 106.566 27.0249C107.062 27.4313 107.703 27.635 108.491 27.635C109.361 27.635 110.156 27.4977 110.871 27.2222L111.177 28.5679C110.342 28.928 109.356 29.1072 108.219 29.1072C106.851 29.1072 105.776 28.7089 104.995 27.9132C104.216 27.1177 103.825 26.0492 103.825 24.7089C103.825 23.3932 104.188 22.2975 104.915 21.4237C105.676 20.4907 106.706 20.0243 108.001 20.0243C109.272 20.0243 110.235 20.4907 110.889 21.4237C111.406 22.1647 111.666 23.0813 111.666 24.1697ZM109.796 23.6669C109.809 23.0922 109.681 22.5957 109.416 22.1766C109.076 21.6374 108.555 21.3682 107.853 21.3682C107.212 21.3682 106.691 21.631 106.292 22.1584C105.966 22.5776 105.772 23.0804 105.712 23.666H109.796V23.6669Z" fill="white"/>
<path d="M42.2087 11.6481C42.2087 12.0995 42.0312 12.4742 41.6749 12.7715C41.2673 13.1181 40.5667 13.2918 39.5766 13.2918C39.1212 13.2918 38.7073 13.2697 38.334 13.2254V7.74825C38.729 7.6716 39.2176 7.63242 39.8002 7.63242C40.5217 7.63242 41.0662 7.75677 41.436 8.00461C41.8048 8.25245 41.9897 8.59399 41.9897 9.02916C41.9897 9.29324 41.904 9.53424 41.7345 9.75224C41.5526 9.97707 41.3035 10.1453 41.0194 10.2352V10.2598C41.3512 10.3365 41.6253 10.4856 41.8409 10.7053C42.0862 10.9638 42.2177 11.3011 42.2087 11.6481ZM41.0455 9.12032C41.0455 8.57524 40.6623 8.3027 39.8976 8.3027C39.6298 8.3027 39.4251 8.31973 39.279 8.35291V9.98816H39.8616C40.2267 9.98816 40.5162 9.90807 40.7272 9.74882C40.8291 9.67541 40.9112 9.58007 40.9666 9.47082C41.0219 9.36149 41.049 9.24141 41.0455 9.12032ZM41.2214 11.6234C41.2214 11.2929 41.0852 11.0426 40.812 10.8722C40.5676 10.7181 40.243 10.6406 39.8371 10.6406H39.2799V12.5824C39.3962 12.6046 39.5874 12.6156 39.8552 12.6156C40.2547 12.6156 40.5721 12.5415 40.8038 12.3925C41.0816 12.2204 41.2214 11.9649 41.2214 11.6234ZM46.8275 13.2424H45.979L45.9095 12.78H45.8834C45.5922 13.1487 45.1782 13.3336 44.6417 13.3336C44.2395 13.3336 43.9149 13.2118 43.6705 12.9699C43.5608 12.861 43.4751 12.7327 43.4182 12.5924C43.3612 12.4521 43.3342 12.3025 43.3387 12.1523C43.3387 11.6617 43.5551 11.2878 43.9906 11.0289C44.4243 10.77 45.0357 10.6431 45.823 10.6491V10.5742C45.823 10.0452 45.529 9.78124 44.9411 9.78124C44.5217 9.78124 44.1521 9.88082 43.8328 10.0785L43.6407 9.49249C44.0357 9.26166 44.5236 9.14582 45.0988 9.14582C46.2107 9.14582 46.7671 9.69949 46.7671 10.8067V12.2852C46.7662 12.6863 46.7878 13.0057 46.8275 13.2424ZM45.8482 11.8627V11.2436C44.8049 11.2265 44.2837 11.4965 44.2837 12.0527C44.2837 12.2622 44.3441 12.4189 44.4658 12.5237C44.5924 12.6299 44.7574 12.686 44.9267 12.6803C45.1349 12.6803 45.3279 12.6182 45.5056 12.4947C45.613 12.4238 45.7004 12.3292 45.7602 12.219C45.8199 12.1088 45.8502 11.9865 45.8482 11.8627ZM49.4687 8.02931C49.4715 8.10142 49.4582 8.17327 49.4296 8.24019C49.401 8.30711 49.3577 8.36757 49.3028 8.41766C49.2452 8.46799 49.1776 8.50707 49.1039 8.53266C49.0302 8.55816 48.952 8.56982 48.8736 8.56674C48.799 8.56791 48.7249 8.55474 48.6559 8.52816C48.5868 8.50149 48.5242 8.46191 48.4719 8.41174C48.4195 8.36157 48.3785 8.30187 48.3513 8.23627C48.3241 8.17069 48.3112 8.10057 48.3136 8.03016C48.3136 7.87601 48.3695 7.74825 48.4804 7.64946C48.5913 7.55066 48.7275 7.50042 48.8916 7.50042C49.0442 7.4968 49.192 7.55039 49.3028 7.64946C49.3574 7.69802 49.4005 7.75701 49.4291 7.82251C49.4577 7.888 49.4712 7.9585 49.4687 8.02931ZM49.3641 13.2424H48.4191V9.22766H49.3641V13.2424ZM54.5077 13.2424H53.44L52.889 12.4002C52.7664 12.2127 52.6329 11.9897 52.4868 11.7307H52.4688C52.3416 11.9573 52.2077 12.1805 52.0676 12.4002L51.5427 13.2424H50.5102L51.9612 11.1933L50.5617 9.22674H51.6112L52.1451 10.0282C52.2497 10.1823 52.3813 10.3944 52.5392 10.6644H52.5653C52.6933 10.4277 52.8214 10.2096 52.9503 10.012L53.449 9.22674H54.4815L53.073 11.1601L54.5077 13.2424ZM58.8631 13.2424H58.0145L57.9451 12.78H57.9189C57.6277 13.1487 57.2137 13.3336 56.6772 13.3336C56.2751 13.3336 55.9504 13.2118 55.7061 12.9699C55.5964 12.861 55.5107 12.7327 55.4537 12.5924C55.3967 12.4521 55.3697 12.3025 55.3742 12.1523C55.3742 11.6617 55.5907 11.2878 56.0261 11.0289C56.4599 10.77 57.0713 10.6431 57.8585 10.6491V10.5742C57.8585 10.0452 57.5646 9.78124 56.9767 9.78124C56.5573 9.78124 56.1876 9.88082 55.8684 10.0785L55.6763 9.49249C56.0712 9.26166 56.5591 9.14582 57.1344 9.14582C58.2462 9.14582 58.8027 9.69949 58.8027 10.8067V12.2852C58.8017 12.6863 58.8225 13.0057 58.8631 13.2424ZM57.8829 11.8627V11.2436C56.8396 11.2265 56.3183 11.4965 56.3183 12.0527C56.3183 12.2622 56.3787 12.4189 56.5005 12.5237C56.6271 12.6299 56.7921 12.686 56.9613 12.6803C57.1696 12.6803 57.3626 12.6182 57.5402 12.4947C57.6477 12.4238 57.7351 12.3292 57.7948 12.219C57.8546 12.1088 57.8848 11.9865 57.8829 11.8627ZM62.7018 10.0129C62.6037 9.99574 62.504 9.98741 62.4042 9.98816C62.0732 9.98816 61.8162 10.1066 61.6341 10.3433C61.4772 10.5528 61.3978 10.8168 61.3978 11.1362V13.2433H60.4537L60.4627 10.4924C60.4627 10.0299 60.4511 9.60832 60.4285 9.22849H61.2509L61.2861 9.99666H61.3122C61.4105 9.73182 61.5674 9.51974 61.7838 9.36049C61.993 9.21741 62.2202 9.14582 62.4655 9.14582C62.5539 9.14582 62.6332 9.15099 62.7018 9.16207V10.0129ZM70.1556 13.2424H69.2097V10.9429C69.2097 10.2343 68.9247 9.87999 68.3539 9.87999C68.224 9.87657 68.0949 9.90099 67.9765 9.95166C67.8581 10.0022 67.7534 10.0777 67.6704 10.1722C67.4972 10.3637 67.404 10.6084 67.408 10.8603V13.2416H66.4638V10.3748C66.4638 10.0222 66.4512 9.63982 66.4287 9.22591H67.2601L67.3042 9.85357H67.3304C67.4396 9.65857 67.6037 9.49757 67.8201 9.36899C68.0752 9.21907 68.3629 9.14332 68.6758 9.14332C69.0735 9.14332 69.4036 9.26424 69.6659 9.50699C69.9915 9.80424 70.1556 10.2479 70.1556 10.8373V13.2424ZM75.0007 13.2424H74.1521L74.0836 12.78H74.0574C73.7652 13.1487 73.3514 13.3336 72.8157 13.3336C72.4127 13.3336 72.088 13.2118 71.8437 12.9699C71.7341 12.861 71.6485 12.7327 71.5917 12.5923C71.5349 12.452 71.5081 12.3025 71.5127 12.1523C71.5127 11.6617 71.7292 11.2878 72.1647 11.0289C72.5975 10.77 73.2089 10.6431 73.9961 10.6491V10.5742C73.9961 10.0452 73.7021 9.78124 73.1151 9.78124C72.6958 9.78124 72.3261 9.88082 72.006 10.0785L71.8139 9.49249C72.2097 9.26166 72.6967 9.14582 73.272 9.14582C74.3847 9.14582 74.9402 9.69949 74.9402 10.8067V12.2852C74.9393 12.6863 74.9601 13.0057 75.0007 13.2424ZM74.0213 11.8627V11.2436C72.9771 11.2265 72.4559 11.4965 72.4559 12.0527C72.4559 12.2622 72.5172 12.4189 72.639 12.5237C72.7652 12.6298 72.9299 12.686 73.0989 12.6803C73.3081 12.6803 73.5001 12.6182 73.6787 12.4947C73.7856 12.4233 73.8727 12.3286 73.9324 12.2185C73.9921 12.1085 74.0226 11.9864 74.0213 11.8627Z" fill="white"/>
<path d="M27.6746 20.7418C27.6477 17.7941 30.1115 16.3599 30.2242 16.2932C28.8288 14.2783 26.6662 14.003 25.9062 13.981C24.0898 13.7917 22.3279 15.0575 21.4027 15.0575C20.4589 15.0575 19.0341 13.9993 17.4984 14.0304C15.5223 14.0606 13.6736 15.1938 12.6597 16.9535C10.5672 20.5416 12.1278 25.8143 14.1326 28.7146C15.1354 30.135 16.3072 31.7209 17.841 31.6652C19.3416 31.6038 19.9021 30.7176 21.7129 30.7176C23.5072 30.7176 24.0335 31.6652 25.5977 31.6295C27.2082 31.6038 28.2222 30.2027 29.1899 28.7695C30.3487 27.1414 30.8142 25.5382 30.8327 25.4558C30.7948 25.443 27.705 24.275 27.6746 20.7418ZM24.7196 12.0731C25.5267 11.0734 26.0789 9.71342 25.9256 8.33325C24.7575 8.3845 23.2966 9.1335 22.4553 10.1113C21.7111 10.9728 21.0462 12.385 21.218 13.713C22.5302 13.81 23.8774 13.0573 24.7196 12.0731Z" fill="white"/>
</g>
<defs>
<clipPath id="clip0_9340_54031">
<rect width="123.333" height="40" fill="white" transform="translate(0 0.000244141)"/>
</clipPath>
</defs>
</svg>
