<svg width="18" height="18" viewBox="0 0 18 18" fill="none" xmlns="http://www.w3.org/2000/svg">
<path fill-rule="evenodd" clip-rule="evenodd" d="M16.8 11.7275C16.8 11.8912 16.7 12.0002 16.55 12.0002H16.35H15.1H14.95C14.8 12.0002 14.7 11.8912 14.7 11.7275V9.43661C14.7 9.27297 14.8 9.16388 14.95 9.16388H15.5H16.55C16.6 9.16388 16.65 9.16388 16.7 9.21843C16.75 9.27297 16.8 9.32752 16.8 9.43661V11.7275ZM7.7 16.6912H10.2V15.7639H7.7V16.6912ZM3.3 9.43661V11.7275C3.3 11.8912 3.2 12.0002 3.05 12.0002H1.45C1.3 12.0002 1.2 11.8912 1.2 11.7275V9.43661C1.2 9.27297 1.3 9.16388 1.45 9.16388H3.05C3.2 9.16388 3.3 9.27297 3.3 9.43661ZM16.7 7.85479C16.4 3.49115 13.1 0.000244141 9 0.000244141C4.9 0.000244141 1.6 3.49115 1.3 7.85479C0.55 7.90934 0 8.61843 0 9.43661V11.7275C0 12.6002 0.65 13.3093 1.45 13.3093H3.05C3.85 13.3093 4.5 12.6002 4.5 11.7275V9.43661C4.5 8.56388 3.85 7.85479 3.05 7.85479H2.5C2.8 4.20024 5.6 1.36388 9 1.36388C12.4 1.36388 15.2 4.25479 15.5 7.85479H14.95C14.15 7.85479 13.5 8.56388 13.5 9.43661V11.7275C13.5 12.4912 13.95 13.0912 14.6 13.2548C14 14.4548 13 15.3275 11.4 15.5457V15.1093C11.4 14.7275 11.15 14.4548 10.8 14.4548H7.1C6.75 14.4548 6.5 14.7275 6.5 15.1093V17.3457C6.5 17.7275 6.75 18.0002 7.1 18.0002H10.8C11.15 18.0002 11.4 17.7275 11.4 17.3457V16.8548C13.55 16.6912 15.05 15.4366 15.95 13.3093H16.55C17.35 13.3093 18 12.6002 18 11.7275V9.43661C18 8.61843 17.45 7.90934 16.7 7.85479Z" fill="white"/>
</svg>
