<svg width="209" height="48" viewBox="0 0 209 48" fill="none" xmlns="http://www.w3.org/2000/svg">
<g clip-path="url(#clip0_9340_53990)">
<path d="M190.784 40.8032C185.216 40.8032 181.509 36.5321 181.509 30.3695C181.509 24.207 185.22 19.9318 190.784 19.9318C196.281 19.9318 199.992 24.1988 199.992 30.3655C199.992 36.5321 196.281 40.7992 190.784 40.7992V40.8032ZM190.784 12.7319C180.582 12.7319 173.283 20.184 173.283 30.3492C173.283 40.5144 180.57 47.9624 190.784 47.9624C200.919 47.9624 208.21 40.5104 208.21 30.3492C208.21 20.1881 200.919 12.7523 190.784 12.7523" fill="white"/>
<path d="M153.482 2.99805V35.5194C153.482 43.1057 158.255 47.4419 165.542 47.4419H170.971V39.9207H166.469C163.422 39.9207 161.632 38.1594 161.632 34.7059V20.2736H170.971V13.2934H161.632V2.99805H153.482Z" fill="white"/>
<path d="M138.05 47.4414V26.0331C138.05 22.5755 139.84 20.8142 142.887 20.8142H149.374V13.293H141.96C134.669 13.293 129.9 17.6292 129.9 25.2195V47.4414H138.05Z" fill="white"/>
<path d="M108.88 40.804C103.311 40.804 99.6043 36.5329 99.6043 30.3703C99.6043 24.2077 103.315 19.9325 108.88 19.9325C114.377 19.9325 118.088 24.1996 118.088 30.3662C118.088 36.5329 114.377 40.7999 108.88 40.7999V40.804ZM108.88 12.7327C98.6776 12.7327 91.3789 20.1847 91.3789 30.3499C91.3789 40.5152 98.6975 47.9998 108.88 47.9998C119.014 47.9998 126.301 40.5477 126.301 30.3865C126.301 20.2254 119.014 12.7693 108.88 12.7693" fill="white"/>
<path d="M75.3536 21.9008H65.9469V7.53772H75.3536C80.5243 7.53772 82.6444 10.9221 82.6444 14.7172C82.6444 18.5124 80.5243 21.9008 75.3536 21.9008ZM75.7514 0.0165154H57.1367V47.442H65.9469V29.422H75.7514C85.4246 29.422 91.188 23.3205 91.188 14.7172C91.188 6.11402 85.4246 0.000244141 75.7514 0.000244141" fill="white"/>
<path d="M42.7218 25.7973C38.4258 20.6181 24.2564 23.3271 13.219 26.7936C13.1888 26.8064 13.1558 26.8118 13.123 26.8091C13.0902 26.8065 13.0586 26.796 13.0309 26.7785C13.0032 26.761 12.9803 26.7371 12.9641 26.7089C12.948 26.6806 12.9392 26.6489 12.9385 26.6166C12.9385 26.069 12.9636 25.5132 12.9636 24.9698C12.9746 22.2102 12.7393 19.4549 12.2602 16.7358C12.2539 16.6902 12.2656 16.6439 12.2928 16.6064C12.3201 16.569 12.3608 16.5431 12.4067 16.5341C21.5431 13.2405 39.9457 12.2442 43.0944 25.6532C43.1447 25.8508 42.8474 25.9661 42.7176 25.8014L42.7218 25.7973ZM33.4723 40.8408C33.1709 41.059 32.7773 40.7008 33.0536 40.4291C37.5004 35.958 41.1516 28.8686 8.93137 43.311C8.73458 43.3974 8.53778 43.1957 8.66758 43.0352C10.4429 40.565 12.0173 36.5221 12.7417 30.8242C12.7459 30.7887 12.7599 30.7551 12.782 30.7268C12.8041 30.6986 12.8336 30.6767 12.8673 30.6636C33.0578 22.689 55.8653 22.9854 33.4891 40.849L33.4723 40.8408ZM6.53213 5.18765C6.49339 5.16851 6.46276 5.13654 6.44563 5.09738C6.4285 5.05822 6.42596 5.01438 6.43846 4.97356C6.45097 4.93274 6.47771 4.89756 6.51399 4.87422C6.55027 4.85088 6.59376 4.84087 6.63681 4.84594C12.2225 4.84594 29.0507 4.43424 37.7265 15.3154C37.8437 15.5048 37.5716 15.6942 37.3999 15.546C34.7829 13.3064 27.6982 9.51461 11.3683 12.8329C11.3156 12.8473 11.2592 12.8412 11.2109 12.8159C11.1626 12.7906 11.126 12.7481 11.1087 12.697C9.81068 8.61299 8.17768 6.40216 6.53213 5.18765ZM42.4036 0.000244141H5.71144C4.18633 0.0111258 2.72802 0.616996 1.65705 1.68468C0.586089 2.75236 -0.00987677 4.19448 0.000153488 5.69404V42.3023C-0.00536522 43.0452 0.137987 43.7818 0.422023 44.4702C0.706059 45.1586 1.12522 45.7852 1.65556 46.3144C2.18591 46.8435 2.81706 47.2647 3.51297 47.5539C4.20888 47.8432 4.95592 47.9949 5.71144 48.0002H42.4036C43.1591 47.9949 43.9061 47.8432 44.602 47.5539C45.2979 47.2647 45.9291 46.8435 46.4594 46.3144C46.9898 45.7852 47.4089 45.1586 47.693 44.4702C47.977 43.7818 48.1204 43.0452 48.1148 42.3023V5.71051C48.122 4.96661 47.9799 4.22864 47.6966 3.53882C47.4133 2.84901 46.9944 2.22092 46.4639 1.6905C45.9334 1.16008 45.3017 0.737764 44.605 0.447726C43.9082 0.157687 43.1601 0.00562498 42.4036 0.000244141Z" fill="white"/>
</g>
<defs>
<clipPath id="clip0_9340_53990">
<rect width="209" height="48" fill="white" transform="translate(0 0.000244141)"/>
</clipPath>
</defs>
</svg>
