<svg width="18" height="18" viewBox="0 0 18 18" fill="none" xmlns="http://www.w3.org/2000/svg">
<path fill-rule="evenodd" clip-rule="evenodd" d="M15.6 0.000244141H2.4C1.05 0.000244141 0 1.05024 0 2.40024V11.9502C0 13.3002 1.05 14.3502 2.4 14.3502H4.5L7.95 17.8002C8.05 17.9002 8.2 18.0002 8.35 18.0002C8.65 18.0002 8.95 17.7502 8.95 17.4002V14.3502H15.55C16.9 14.3502 17.95 13.3002 17.95 11.9502V2.40024C18 1.05024 16.95 0.000244141 15.6 0.000244141ZM15.6 1.20024C16.25 1.20024 16.8 1.75024 16.8 2.40024V11.9502C16.8 12.6002 16.25 13.1502 15.6 13.1502H9C8.35 13.1502 7.8 13.7002 7.8 14.3502V15.9502L5.35 13.5002C5.15 13.2502 4.8 13.1502 4.5 13.1502H2.4C1.75 13.1502 1.2 12.6002 1.2 11.9502V2.40024C1.2 1.75024 1.75 1.20024 2.4 1.20024H15.6Z" fill="white"/>
<path d="M13.1992 4.80029H4.19922V6.00029H13.1992V4.80029Z" fill="white"/>
<path d="M8.39922 7.80029H4.19922V9.00029H8.39922V7.80029Z" fill="white"/>
</svg>
