<svg width="40" height="40" viewBox="0 0 40 40" fill="none" xmlns="http://www.w3.org/2000/svg">
<g clip-path="url(#clip0_9340_54021)">
<path d="M31.8003 12.5335C31.6003 12.2669 31.267 12.2002 31.0003 12.2669C31.1336 12.0002 31.267 11.7335 31.3336 11.4669C31.467 11.1335 31.3336 10.8002 31.067 10.6002C30.8003 10.4002 30.467 10.4002 30.1336 10.5335C29.4003 10.9335 28.667 11.2669 27.867 11.4669C26.9336 10.6002 25.7336 10.1335 24.4003 10.0669C22.9336 10.0002 21.6003 10.5335 20.5336 11.5335C19.4003 12.6002 18.8003 14.0669 18.867 15.6002C15.8003 15.2002 12.9336 13.6002 10.9336 11.2002C10.8003 11.0002 10.5336 10.8669 10.267 10.9335C10.067 10.9335 9.80031 11.1335 9.66698 11.3335C8.73365 13.0002 8.73365 14.9335 9.53365 16.5335C9.46698 16.5335 9.33365 16.6002 9.26698 16.6669C9.00031 16.8002 8.86698 17.1335 8.86698 17.4002C8.86698 19.0002 9.53365 20.4669 10.667 21.4669C10.467 21.6669 10.4003 22.0002 10.5336 22.2669C11.0003 23.8002 12.1336 24.9335 13.5336 25.5335C12.1336 26.2002 10.5336 26.4669 8.86698 26.3335C8.46698 26.2669 8.13365 26.5335 8.00031 26.8669C7.86698 27.2002 8.00031 27.6002 8.33365 27.8002C10.5336 29.2669 13.1336 30.0002 15.8003 30.0002C21.0003 30.0002 24.267 27.5335 26.1336 25.4669C28.4003 22.8669 29.7336 19.4669 29.7336 16.1335C29.7336 16.0669 29.7336 16.0002 29.7336 15.9335C30.6003 15.2669 31.267 14.4669 31.867 13.6002C32.067 13.2002 32.067 12.8002 31.8003 12.5335ZM28.1336 16.1335C28.067 23.8002 21.867 28.3335 15.867 28.3335C14.5336 28.3335 13.267 28.1335 12.0003 27.7335C13.467 27.4002 14.9336 26.7335 16.1336 25.8002C16.4003 25.6002 16.5336 25.2669 16.4003 24.9335C16.267 24.6002 16.0003 24.4002 15.667 24.4002C14.467 24.4002 13.4003 23.8002 12.667 22.8669C13.0003 22.8669 13.3336 22.8002 13.6003 22.6669C13.9336 22.6002 14.2003 22.2669 14.2003 21.8669C14.2003 21.4669 13.9336 21.2002 13.5336 21.1335C12.2003 20.8669 11.1336 19.8669 10.667 18.6002C11.067 18.6002 11.4003 18.6669 11.7336 18.6669C12.067 18.6669 12.4003 18.4669 12.5336 18.1335C12.667 17.8002 12.5336 17.4002 12.2003 17.2002C10.867 16.3335 10.267 14.7335 10.6003 13.2002C13.0003 15.6669 16.267 17.1335 19.8003 17.3335C20.067 17.3335 20.267 17.2669 20.467 17.0669C20.6003 16.8669 20.667 16.6002 20.6003 16.4002C20.267 15.0669 20.7336 13.6669 21.667 12.8002C22.4003 12.1335 23.4003 11.7335 24.4003 11.8002C25.4003 11.8002 26.3336 12.2669 27.067 13.0002L27.1336 13.0669C28.067 12.8669 29.0003 12.4669 29.867 12.0002C29.5336 13.0002 28.867 13.8669 28.0003 14.4669L28.067 14.5335C28.9336 14.4002 29.7336 14.2002 30.5336 13.8669C29.9336 14.6002 29.0003 15.4669 28.1336 16.1335Z" fill="white"/>
</g>
<defs>
<clipPath id="clip0_9340_54021">
<rect width="24" height="24" fill="white" transform="translate(8 8.00024)"/>
</clipPath>
</defs>
</svg>
