<svg width="24" height="24" viewBox="0 0 24 24" fill="none" xmlns="http://www.w3.org/2000/svg">
  <g clip-path="url(#clip0_22180_206862)">
    <path
      d="M23.7399 20.1398L13.8599 1.85977C13.4799 1.15977 12.7799 0.759766 11.9999 0.759766C11.2199 0.759766 10.5199 1.17977 10.1399 1.85977L0.259909 20.1398C-0.100091 20.7998 -0.0800909 21.5798 0.299909 22.2198C0.679909 22.8598 1.35991 23.2598 2.11991 23.2598H21.8799C22.6399 23.2598 23.3199 22.8798 23.6999 22.2198C24.0799 21.5798 24.0999 20.7998 23.7399 20.1398ZM22.8399 21.7198C22.6399 22.0598 22.2799 22.2598 21.8799 22.2598H2.11991C1.71991 22.2598 1.35991 22.0598 1.15991 21.7198C0.959909 21.3798 0.939909 20.9598 1.13991 20.6198L11.0199 2.33977C11.2199 1.97977 11.5799 1.75977 11.9999 1.75977C12.4199 1.75977 12.7799 1.97977 12.9799 2.33977L22.8599 20.6198C23.0399 20.9598 23.0399 21.3798 22.8399 21.7198Z"
      fill="#842310" />
    <path
      d="M11.9999 17.1598C12.2799 17.1598 12.4999 16.9398 12.4999 16.6598V8.61977C12.4999 8.33977 12.2799 8.11977 11.9999 8.11977C11.7199 8.11977 11.4999 8.33977 11.4999 8.61977V16.6598C11.4999 16.9398 11.7199 17.1598 11.9999 17.1598Z"
      fill="#842310" />
    <path
      d="M11.9999 18.6198C11.5799 18.6198 11.2399 18.9598 11.2399 19.3598C11.2399 19.7598 11.5799 20.1198 11.9999 20.1198C12.4199 20.1198 12.7599 19.7798 12.7599 19.3598C12.7599 18.9398 12.4199 18.6198 11.9999 18.6198Z"
      fill="#842310" />
  </g>
  <defs>
    <clipPath id="clip0_22180_206862">
      <rect width="24" height="24" fill="white" />
    </clipPath>
  </defs>
</svg>