<svg width="40" height="40" viewBox="0 0 40 40" fill="none" xmlns="http://www.w3.org/2000/svg">
  <path fillRule="evenodd" clipRule="evenodd"
    d="M31.3903 4.0873L25.006 9.41246C23.4495 8.73002 21.765 8.33334 20.0003 8.33334C18.2354 8.33334 16.5508 8.73011 14.9941 9.41268L8.60956 4.0873C6.41948 2.26055 3.09853 3.98058 3.34636 6.81329L5.00327 24.4175C5.03101 25.5919 5.25311 26.7266 5.64387 27.8002L3.89164 28.3884C3.45089 28.5363 3.22408 29.0031 3.38503 29.431C3.54599 29.859 4.03376 30.086 4.4745 29.938L6.32808 29.3159C6.65789 29.9231 7.04423 30.5044 7.48151 31.0551L6.22114 31.8163C5.82653 32.0547 5.71241 32.56 5.96626 32.9449C6.22012 33.3299 6.7458 33.4488 7.14042 33.2105L8.62423 32.3143C11.3751 34.9791 15.4512 36.6667 20.0003 36.6667C24.555 36.6667 28.6356 34.975 31.3865 32.3045L32.8779 33.2052C33.2787 33.4473 33.8014 33.3333 34.0454 32.9507C34.2893 32.568 34.1622 32.0616 33.7614 31.8195L32.5115 31.0647C32.9519 30.5111 33.3408 29.9266 33.6725 29.3159L35.5256 29.9372C35.9664 30.085 36.4541 29.8579 36.6149 29.4299C36.7757 29.002 36.5488 28.5352 36.108 28.3874L34.3568 27.8002C34.7487 26.7234 34.9709 25.5851 34.9976 24.4069L36.6535 6.81329C36.9013 3.98058 33.5804 2.26055 31.3903 4.0873ZM32.7683 27.2675C33.1146 26.3369 33.3089 25.3628 33.3314 24.3692L34.9931 6.66803L34.9935 6.66354C35.1064 5.33066 33.524 4.47787 32.4578 5.36719L26.6131 10.2423C27.0029 10.475 27.3824 10.7252 27.7506 10.9909C28.1238 11.2602 28.2081 11.7811 27.9388 12.1543C27.6695 12.5275 27.1486 12.6118 26.7754 12.3425C26.2046 11.9306 25.6091 11.5638 24.9929 11.2497L24.3143 10.9483C22.9502 10.3424 21.5079 10.0035 20.0234 10L20.0003 10C18.5075 10 17.0572 10.3393 15.6858 10.9485L15.0072 11.2499C14.3912 11.564 13.7959 11.9307 13.2252 12.3425C12.852 12.6118 12.3311 12.5275 12.0618 12.1543C11.7925 11.7811 11.8768 11.2602 12.25 10.9909C12.6181 10.7253 12.9974 10.4751 13.387 10.2426L7.542 5.36719C6.47581 4.47787 4.89342 5.33064 5.0063 6.66351L6.66947 24.3782C6.69286 25.3685 6.88692 26.3394 7.23214 27.2671L8.88643 26.7119C9.32717 26.564 9.81495 26.7909 9.9759 27.2189C10.1369 27.6468 9.91004 28.1136 9.4693 28.2616L7.94619 28.7728C8.23059 29.2615 8.55904 29.7325 8.9281 30.1814L10.3835 29.3025C10.7781 29.0641 11.3038 29.183 11.5576 29.568C11.8115 29.953 11.6974 30.4583 11.3027 30.6966L10.1087 31.4177C12.5025 33.5866 15.9787 35 20.0003 35C24.028 35 27.5084 33.5825 29.9025 31.4082L28.7156 30.6913C28.3148 30.4493 28.1876 29.9428 28.4316 29.5602C28.6756 29.1776 29.1982 29.0636 29.5991 29.3057L31.0647 30.1909C31.4368 29.7392 31.7678 29.2652 32.0541 28.7732L30.5308 28.2624C30.09 28.1146 29.863 27.6478 30.0238 27.2199C30.1847 26.7919 30.6724 26.5648 31.1132 26.7126L32.7683 27.2675Z"
    fill="black" />
  <path
    d="M14.2002 21.2666C14.2002 21.9666 13.6336 22.5332 12.9336 22.5332C12.2336 22.5332 11.667 21.9666 11.667 21.2666C11.667 20.5666 12.2336 20 12.9336 20C13.6336 20 14.2002 20.5666 14.2002 21.2666Z"
    fill="black" />
  <path
    d="M25.8004 21.2666C25.8004 21.9666 26.367 22.5332 27.067 22.5332C27.767 22.5332 28.3336 21.9666 28.3336 21.2666C28.3336 20.5666 27.767 20 27.067 20C26.367 20 25.8004 20.5666 25.8004 21.2666Z"
    fill="black" />
  <path
    d="M19.1653 26.945L16.8328 24.9805C16.4986 24.699 16.7033 24.165 17.1455 24.165H22.8551C23.2973 24.165 23.502 24.699 23.1678 24.9805L20.8353 26.945V30C20.8353 30.4602 20.4605 30.8333 20.0003 30.8333C19.5401 30.8333 19.1653 30.4602 19.1653 30V26.945Z"
    fill="black" />
</svg>