<svg width="40" height="40" viewBox="0 0 40 40" fill="none" xmlns="http://www.w3.org/2000/svg">
  <path
    d="M16.8324 26.6485L19.1665 28.6144V31.6663C19.1665 32.1266 19.5396 32.4997 19.9998 32.4997C20.4601 32.4997 20.8332 32.1266 20.8332 31.6663V28.6144L23.1673 26.6485C23.5015 26.367 23.2968 25.833 22.8547 25.833H17.145C16.7029 25.833 16.4981 26.367 16.8324 26.6485Z"
    fill="black" />
  <path
    d="M25.4331 20.8663C26.1331 20.8663 26.6998 20.2996 26.6998 19.5996C26.6998 18.8997 26.1331 18.333 25.4331 18.333C24.7332 18.333 24.1665 18.8997 24.1665 19.5996C24.1665 20.2996 24.7332 20.8663 25.4331 20.8663Z"
    fill="black" />
  <path
    d="M14.5998 20.8663C15.2998 20.8663 15.8664 20.2996 15.8664 19.5996C15.8664 18.8997 15.2998 18.333 14.5998 18.333C13.8998 18.333 13.3332 18.8997 13.3332 19.5996C13.3332 20.2996 13.8998 20.8663 14.5998 20.8663Z"
    fill="black" />
  <path fillRule="evenodd" clipRule="evenodd"
    d="M19.9998 36.6663C14.7899 36.6663 10.3467 33.1165 8.86167 28.2621C3.80147 27.5997 0.427811 22.4051 2.09792 17.3644L4.10378 11.3103C5.68221 6.54635 10.1136 3.33301 15.105 3.33301H24.8946C29.8861 3.33301 34.3175 6.54636 35.8959 11.3104L37.9018 17.3645C39.5712 22.4033 36.2007 27.5959 31.1436 28.2614C29.6642 33.139 25.2163 36.6663 19.9998 36.6663ZM8.49634 26.5065C8.38903 25.8459 8.33317 25.1682 8.33317 24.4782V24.4562C8.33316 22.1131 8.33314 17.4456 9.46218 13.1224C9.57847 12.6771 10.0337 12.4104 10.479 12.5267C10.9243 12.643 11.1911 13.0983 11.0748 13.5436C10.0034 17.6458 9.99984 22.126 9.99984 24.4782C9.99984 30.2982 14.5404 34.9997 19.9998 34.9997C25.4614 34.9997 29.9998 30.3412 29.9998 24.4782C29.9998 22.126 29.9963 17.6458 28.9249 13.5436C28.8086 13.0983 29.0753 12.643 29.5206 12.5267C29.9659 12.4104 30.4212 12.6771 30.5375 13.1224C31.6665 17.4456 31.6665 22.1131 31.6665 24.4562V24.4782C31.6665 25.1688 31.6113 25.8463 31.5052 26.5061C35.2066 25.6747 37.5929 21.7314 36.3197 17.8886L34.3138 11.8345C32.9597 7.74745 29.1622 4.99967 24.8946 4.99967H15.105C10.8375 4.99967 7.04002 7.74745 5.68587 11.8345L3.68001 17.8886C2.40656 21.7321 4.79388 25.6761 8.49634 26.5065Z"
    fill="black" />
</svg>