<svg width="24" height="24" viewBox="0 0 24 24" fill="none" xmlns="http://www.w3.org/2000/svg">
  <path
    d="M15.26 4.05992C15.1 3.95992 14.88 3.95992 14.72 4.05992L7.72 8.61992C7.58 8.71992 7.5 8.85992 7.5 9.03992V12.4399L5.32 10.5399C5.14 10.3799 4.86 10.3799 4.66 10.5399L1.68 13.1399C1.58 13.2399 1.5 13.3799 1.5 13.5199V22.0399C1.5 22.3199 1.72 22.5399 2 22.5399H22.04C22.32 22.5399 22.54 22.3199 22.54 22.0399V9.03992C22.54 8.87992 22.46 8.71992 22.32 8.61992L15.28 4.05992H15.26ZM7.48 21.5399H2.5V13.7599L4.98 11.5999L7.5 13.7799V21.5599L7.48 21.5399ZM16.98 21.5399H12.98V16.9999H16.98V21.5399ZM21.5 21.5399H17.98V16.4999C17.98 16.2199 17.76 15.9999 17.48 15.9999H12.48C12.2 15.9999 11.98 16.2199 11.98 16.4999V21.5399H8.48V13.6199C8.48 13.6199 8.48 13.5199 8.48 13.4799V9.31992L14.98 5.09992L21.52 9.31992V21.5599L21.5 21.5399ZM22.6 6.87992C22.5 7.01992 22.34 7.09992 22.18 7.09992C22.08 7.09992 22 7.07992 21.9 7.01992L14.96 2.53992L8.08 7.01992C7.84 7.17992 7.54 7.09992 7.38 6.87992C7.22 6.63992 7.3 6.33992 7.52 6.17992L14.72 1.51992C14.88 1.41992 15.1 1.41992 15.26 1.51992L22.48 6.17992C22.72 6.31992 22.78 6.63992 22.62 6.87992H22.6ZM11.98 11.2799C11.98 12.9199 13.32 14.2599 14.96 14.2599C16.6 14.2599 17.94 12.9199 17.94 11.2799C17.94 9.63992 16.6 8.29992 14.96 8.29992C13.32 8.29992 11.98 9.63992 11.98 11.2799ZM16.94 11.2799C16.94 12.3799 16.06 13.2599 14.96 13.2599C13.86 13.2599 12.98 12.3799 12.98 11.2799C12.98 10.1799 13.86 9.29992 14.96 9.29992C16.06 9.29992 16.94 10.1799 16.94 11.2799Z"
    fill="#0046C0" />
</svg>