<svg width="24" height="24" viewBox="0 0 24 24" fill="none" xmlns="http://www.w3.org/2000/svg">
<path d="M16.2396 9.98051C16.6596 9.98051 16.9996 9.64052 16.9996 9.22053C16.9996 8.80054 16.6596 8.46055 16.2396 8.46055C15.8197 8.46055 15.4797 8.80054 15.4797 9.22053C15.4797 9.64052 15.8197 9.98051 16.2396 9.98051Z" fill="#94621F"/>
<path d="M8.71983 9.98051C9.13982 9.98051 9.47981 9.64052 9.47981 9.22053C9.47981 8.80054 9.13982 8.46055 8.71983 8.46055C8.29984 8.46055 7.95985 8.80054 7.95985 9.22053C7.95985 9.64052 8.29984 9.98051 8.71983 9.98051Z" fill="#94621F"/>
<path d="M12.4797 11.5805C9.9798 11.5805 7.93985 13.6204 7.93985 16.1204C7.93985 16.4003 8.15985 16.6203 8.43984 16.6203C8.71983 16.6203 8.93983 16.4003 8.93983 16.1204C8.93983 14.1804 10.5198 12.5804 12.4797 12.5804C14.4397 12.5804 16.0196 14.1604 16.0196 16.1204C16.0196 16.4003 16.2396 16.6203 16.5196 16.6203C16.7996 16.6203 17.0196 16.4003 17.0196 16.1204C17.0196 13.6204 14.9797 11.5805 12.4797 11.5805Z" fill="#94621F"/>
<path d="M12.4997 1.00073C6.71988 1.00073 2 5.72061 2 11.5005C2 17.2803 6.71988 22.0002 12.4997 22.0002C18.2796 22.0002 22.9995 17.2803 22.9995 11.5005C22.9995 5.72061 18.2796 1.00073 12.4997 1.00073ZM12.4997 21.0002C7.25987 21.0002 2.99997 16.7403 2.99997 11.5005C2.99997 6.2606 7.25987 2.00071 12.4997 2.00071C17.7396 2.00071 21.9995 6.2606 21.9995 11.5005C21.9995 16.7403 17.7396 21.0002 12.4997 21.0002Z" fill="#94621F"/>
</svg>
