<svg width="40" height="40" viewBox="0 0 40 40" fill="none" xmlns="http://www.w3.org/2000/svg">
  <path
    d="M32.8 17.4667H28.6667L26.9 13C26.7667 12.6667 26.4667 12.4667 26.1333 12.4667C25.8 12.4667 25.4667 12.6667 25.3667 13L23.6 17.4667H19.5C19.1333 17.4667 18.8333 17.7 18.7 18.0333C18.6 18.3667 18.7 18.7333 18.9667 18.9667L22.2333 21.6667L21.0333 26.5C20.9333 26.8333 21.0667 27.2 21.3667 27.4C21.5 27.5 21.6667 27.5333 21.8333 27.5333C22 27.5333 22.1667 27.4667 22.3 27.3667L26.1333 24.6L30 27.3667C30.3 27.5667 30.6667 27.5667 30.9667 27.3667C31.2667 27.1667 31.4 26.8 31.3 26.4667L30.1 21.6333L33.3667 18.9333C33.6333 18.7 33.7333 18.3333 33.6333 18C33.5 17.6667 33.2 17.4333 32.8667 17.4333M28.6667 20.6667C28.4 20.8667 28.3 21.2 28.4 21.5L29.2 24.6333L26.7 22.8333C26.4 22.6333 26.0333 22.6333 25.7333 22.8333L23.2333 24.6333L24.0333 21.5C24.1 21.2 24.0333 20.8667 23.7667 20.6667L21.9 19.1H24.2667C24.6 19.1 24.9 18.9 25.0333 18.5667L26.2333 15.5333L27.4333 18.5667C27.5667 18.9 27.8667 19.1 28.2 19.1H30.5667L28.7 20.6667H28.6667Z"
    fill="black" />
  <path
    d="M37.5 7.5H2.5C1.13333 7.5 0 8.63333 0 10V13.4C0 13.8667 0.366667 14.2333 0.833333 14.2333C4.03333 14.2333 6.63333 16.8333 6.63333 20.0333C6.63333 23.2333 4.03333 25.8333 0.833333 25.8333C0.366667 25.8333 0 26.2 0 26.6667V30.0667C0 31.4333 1.1 32.5667 2.46667 32.5667H37.5C38.8667 32.5667 40 31.4667 40 30.0667V10C40 8.63333 38.8667 7.5 37.5 7.5ZM38.3333 30C38.3333 30.4667 37.9667 30.8333 37.5 30.8333H13.3333C13.3333 30.3667 12.9667 30 12.5 30C12.0333 30 11.6667 30.3667 11.6667 30.8333H2.5C2.03333 30.8333 1.66667 30.4667 1.66667 30V27.4C5.4 27 8.33333 23.8 8.33333 19.9667C8.33333 16.1333 5.43333 12.9667 1.7 12.5333V9.93333C1.7 9.46667 2.06667 9.1 2.5 9.1H11.6667C11.6667 9.56667 12.0333 9.93333 12.5 9.93333C12.9667 9.93333 13.3333 9.56667 13.3333 9.1H37.5C37.9667 9.1 38.3333 9.46667 38.3333 9.93333V30Z"
    fill="black" />
  <path
    d="M12.5 25.3667C12.0333 25.3667 11.6667 25.7333 11.6667 26.2V27.7333C11.6667 28.2 12.0333 28.5667 12.5 28.5667C12.9667 28.5667 13.3333 28.2 13.3333 27.7333V26.2C13.3333 25.7333 12.9667 25.3667 12.5 25.3667Z"
    fill="black" />
  <path
    d="M12.5 20.7C12.0333 20.7 11.6667 21.0667 11.6667 21.5333V23.0667C11.6667 23.5333 12.0333 23.9 12.5 23.9C12.9667 23.9 13.3333 23.5333 13.3333 23.0667V21.5333C13.3333 21.0667 12.9667 20.7 12.5 20.7Z"
    fill="black" />
  <path
    d="M12.5 11.4333C12.0333 11.4333 11.6667 11.8 11.6667 12.2667V13.8C11.6667 14.2667 12.0333 14.6333 12.5 14.6333C12.9667 14.6333 13.3333 14.2667 13.3333 13.8V12.2667C13.3333 11.8 12.9667 11.4333 12.5 11.4333Z"
    fill="black" />
  <path
    d="M12.5 16.0667C12.0333 16.0667 11.6667 16.4333 11.6667 16.9V18.4333C11.6667 18.9 12.0333 19.2667 12.5 19.2667C12.9667 19.2667 13.3333 18.9 13.3333 18.4333V16.9C13.3333 16.4333 12.9667 16.0667 12.5 16.0667Z"
    fill="black" />
</svg>