<svg width="40" height="40" viewBox="0 0 40 40" fill="none" xmlns="http://www.w3.org/2000/svg">
<g clip-path="url(#clip0_9340_54000)">
<path d="M21.734 32.0002H17.6007C17.134 32.0002 16.8007 31.6669 16.8007 31.2002V21.8002H14.134C13.6673 21.8002 13.334 21.4669 13.334 21.0002V17.0002C13.334 16.5336 13.6673 16.2002 14.134 16.2002H16.8007V14.0669C16.8007 10.4002 19.134 8.00024 22.734 8.00024C24.2673 8.00024 25.534 8.13358 25.934 8.13358C26.334 8.20024 26.6007 8.53358 26.6007 8.93358V12.4669C26.6007 12.9336 26.2673 13.2669 25.8007 13.2669H23.6673C22.6007 13.2669 22.4673 13.5336 22.4673 14.4002V16.1336H25.6007C25.8007 16.1336 26.0673 16.2002 26.2007 16.4002C26.334 16.6002 26.4007 16.8002 26.4007 17.0002L25.8673 21.0002C25.8007 21.4002 25.4673 21.6669 25.0673 21.6669H22.4007V31.0669C22.534 31.6669 22.2007 32.0002 21.734 32.0002ZM18.4007 30.4002H20.934V21.0002C20.934 20.5336 21.2673 20.2002 21.734 20.2002H24.4673L24.8007 17.8002H21.734C21.2673 17.8002 20.934 17.4669 20.934 17.0002V14.4669C20.934 13.8002 20.934 11.7336 23.734 11.7336H25.0673V9.66691C24.534 9.60024 23.734 9.60024 22.8007 9.60024C20.0673 9.60024 18.4673 11.2002 18.4673 14.0669V17.0002C18.4673 17.4669 18.134 17.8002 17.6673 17.8002H15.0007V20.2002H17.6673C18.134 20.2002 18.4673 20.5336 18.4673 21.0002V30.4002H18.4007Z" fill="white"/>
</g>
<defs>
<clipPath id="clip0_9340_54000">
<rect width="24" height="24" fill="white" transform="translate(8 8.00024)"/>
</clipPath>
</defs>
</svg>
