<svg width="124" height="40" viewBox="0 0 124 40" fill="none" xmlns="http://www.w3.org/2000/svg">
<g clip-path="url(#clip0_9340_54036)">
<path d="M120.334 0.000244141H3.66732C1.82637 0.000244141 0.333984 1.49263 0.333984 3.33358V36.6669C0.333984 38.5079 1.82637 40.0002 3.66732 40.0002H120.334C122.175 40.0002 123.667 38.5079 123.667 36.6669V3.33358C123.667 1.49263 122.175 0.000244141 120.334 0.000244141Z" fill="#2E2D33"/>
<path d="M61.3121 21.048C60.5351 21.0498 59.7762 21.2842 59.1312 21.7216C58.4862 22.159 57.9841 22.7797 57.6885 23.5051C57.3929 24.2306 57.3169 25.0282 57.4703 25.7973C57.6236 26.5663 57.9995 27.2722 58.5501 27.8256C59.1008 28.379 59.8016 28.7551 60.564 28.9063C61.3264 29.0576 62.1161 28.9772 62.8331 28.6752C63.5502 28.3733 64.1626 27.8635 64.5927 27.2102C65.0229 26.5569 65.2515 25.7895 65.2496 25.0051C65.2571 24.4817 65.1603 23.9622 64.9649 23.4775C64.7694 22.9927 64.4794 22.5527 64.112 22.1834C63.7446 21.8142 63.3073 21.5234 62.8263 21.3283C62.3453 21.1332 61.8304 21.0379 61.3121 21.048ZM61.3121 27.4072C60.8359 27.4408 60.3606 27.3291 59.9482 27.0864C59.5357 26.8437 59.2051 26.4813 58.9994 26.0464C58.7936 25.6115 58.7221 25.1242 58.7943 24.6477C58.8666 24.1712 59.079 23.7277 59.4041 23.3747C59.7293 23.0218 60.1521 22.7758 60.6175 22.6687C61.083 22.5617 61.5696 22.5984 62.0141 22.7742C62.4585 22.9501 62.8403 23.2569 63.1098 23.6547C63.3793 24.0526 63.5241 24.5231 63.5252 25.0051C63.5401 25.3105 63.4942 25.6157 63.3904 25.903C63.2865 26.1902 63.1267 26.4536 62.9205 26.6774C62.7141 26.9013 62.4656 27.0812 62.1894 27.2066C61.9131 27.3319 61.6149 27.4002 61.3121 27.4072ZM52.7177 21.048C51.9408 21.0498 51.1818 21.2842 50.5368 21.7216C49.8918 22.159 49.3898 22.7797 49.0941 23.5051C48.7985 24.2306 48.7226 25.0282 48.8759 25.7973C49.0293 26.5663 49.4051 27.2722 49.9557 27.8256C50.5064 28.379 51.2072 28.7551 51.9696 28.9063C52.732 29.0576 53.5216 28.9772 54.2388 28.6752C54.9559 28.3733 55.5682 27.8635 55.9984 27.2102C56.4285 26.5569 56.6571 25.7895 56.6553 25.0051C56.6628 24.4817 56.566 23.9622 56.3705 23.4775C56.1751 22.9927 55.885 22.5527 55.5176 22.1834C55.1502 21.8142 54.713 21.5234 54.232 21.3283C53.751 21.1332 53.236 21.0379 52.7177 21.048ZM52.7177 27.4072C52.2415 27.4408 51.7663 27.3291 51.3538 27.0864C50.9414 26.8437 50.6108 26.4813 50.405 26.0464C50.1992 25.6115 50.1278 25.1242 50.2 24.6477C50.2721 24.1712 50.4846 23.7277 50.8098 23.3747C51.1349 23.0218 51.5577 22.7758 52.0231 22.6687C52.4886 22.5617 52.9751 22.5984 53.4196 22.7742C53.8641 22.9501 54.246 23.2569 54.5155 23.6547C54.785 24.0526 54.9297 24.5231 54.9309 25.0051C54.9457 25.3105 54.8999 25.6157 54.796 25.903C54.6921 26.1902 54.5323 26.4536 54.3261 26.6774C54.1198 26.9013 53.8712 27.0812 53.595 27.2066C53.3188 27.3319 53.0205 27.4002 52.7177 27.4072ZM42.5004 22.2677V23.9437H46.4841C46.4216 24.733 46.0966 25.4778 45.5619 26.0572C45.1623 26.4682 44.6816 26.7901 44.1511 27.0017C43.6206 27.2135 43.0519 27.3104 42.482 27.2862C41.308 27.2862 40.1821 26.8153 39.3521 25.9772C38.522 25.1391 38.0556 24.0023 38.0556 22.817C38.0556 21.6317 38.522 20.495 39.3521 19.6568C40.1821 18.8187 41.308 18.3478 42.482 18.3478C43.6074 18.3309 44.6941 18.7625 45.5066 19.5489L46.6777 18.3665C46.1281 17.8176 45.4755 17.385 44.7582 17.094C44.0409 16.8031 43.2733 16.6595 42.5004 16.6719C41.6806 16.6397 40.8628 16.7749 40.096 17.0694C39.3292 17.364 38.6292 17.8118 38.0379 18.386C37.4466 18.9602 36.9762 19.6491 36.6549 20.4113C36.3336 21.1735 36.168 21.9933 36.168 22.8217C36.168 23.6501 36.3336 24.4699 36.6549 25.2321C36.9762 25.9942 37.4466 26.6831 38.0379 27.2573C38.6292 27.8316 39.3292 28.2794 40.096 28.5739C40.8628 28.8684 41.6806 29.0037 42.5004 28.9714C43.2892 29.0032 44.0757 28.8662 44.8084 28.5694C45.5411 28.2725 46.2032 27.8225 46.7515 27.249C47.7198 26.1749 48.2358 24.7622 48.19 23.3105C48.1933 22.9611 48.1656 22.6121 48.107 22.2677H42.5004ZM84.283 23.5712C84.0421 22.8568 83.5925 22.233 82.9931 21.7824C82.3936 21.3319 81.6729 21.0757 80.9261 21.048C80.4216 21.047 79.9224 21.1504 79.4591 21.352C78.9959 21.5536 78.5786 21.8489 78.2329 22.2197C77.8871 22.5907 77.6205 23.0292 77.4492 23.5082C77.2781 23.9873 77.206 24.4967 77.2375 25.0051C77.2296 25.855 77.4943 26.6847 77.9919 27.3702C78.4896 28.0557 79.1936 28.5604 79.9986 28.8087C80.8037 29.0569 81.6668 29.0356 82.4589 28.7477C83.251 28.4599 83.9296 27.9211 84.393 27.2117L83.0562 26.2807C82.8569 26.6161 82.5742 26.8931 82.2361 27.0842C81.8981 27.2752 81.5164 27.3738 81.129 27.37C80.7293 27.3867 80.334 27.2808 79.9949 27.0665C79.6559 26.8522 79.389 26.5392 79.2293 26.1689L84.4763 23.9809L84.283 23.5712ZM78.9342 24.8933C78.9156 24.6046 78.9543 24.315 79.0481 24.0416C79.1419 23.7682 79.289 23.5165 79.4806 23.3013C79.6722 23.0862 79.9046 22.9118 80.1638 22.7887C80.4231 22.6656 80.7043 22.5961 80.9906 22.5842C81.2867 22.5651 81.5819 22.6343 81.8393 22.7833C82.0968 22.9323 82.3051 23.1546 82.4384 23.4222L78.9342 24.8933ZM74.674 28.7294H76.3984V17.0909H74.674V28.7294ZM71.8522 21.9325H71.7876C71.5258 21.6447 71.206 21.4169 70.8497 21.2643C70.4934 21.1118 70.1089 21.038 69.7221 21.048C68.7143 21.0973 67.764 21.5362 67.0681 22.2738C66.3721 23.0114 65.984 23.991 65.984 25.0097C65.984 26.0284 66.3721 27.0081 67.0681 27.7456C67.764 28.4832 68.7143 28.9221 69.7221 28.9714C70.113 28.9794 70.5009 28.9 70.8579 28.7391C71.215 28.5782 71.5325 28.3396 71.7876 28.0404H71.8522V28.6083C71.8522 30.126 71.0499 30.936 69.7589 30.936C69.3276 30.9265 68.909 30.7877 68.556 30.5374C68.203 30.2871 67.9316 29.9365 67.7763 29.5301L66.2825 30.1539C66.5586 30.8543 67.0388 31.4536 67.6596 31.8726C68.2803 32.2915 69.0124 32.5103 69.7589 32.5002C71.7784 32.5002 73.4475 31.2992 73.4475 28.3756V21.2807H71.8522V21.9325ZM69.8696 27.4072C69.2654 27.3692 68.6983 27.1001 68.2838 26.6546C67.8692 26.2092 67.6385 25.6209 67.6385 25.0097C67.6385 24.3985 67.8692 23.8102 68.2838 23.3648C68.6983 22.9193 69.2654 22.6502 69.8696 22.6122C70.1649 22.6251 70.4546 22.6977 70.7216 22.826C70.9884 22.9542 71.2271 23.1353 71.4232 23.3586C71.6194 23.5818 71.7691 23.8427 71.8633 24.1255C71.9576 24.4084 71.9946 24.7075 71.972 25.0051C71.9972 25.3037 71.9621 25.6042 71.869 25.8888C71.7757 26.1733 71.6264 26.4357 71.4298 26.6603C71.2333 26.8848 70.9937 27.0668 70.7255 27.1952C70.4573 27.3236 70.1661 27.3957 69.8696 27.4072ZM92.3605 17.0909H88.2296V28.7294H89.9538V24.3161H92.3605C92.8521 24.3517 93.3455 24.2847 93.8105 24.1193C94.2746 23.9539 94.7013 23.6937 95.0613 23.3547C95.4221 23.0157 95.7096 22.6054 95.9063 22.1492C96.103 21.6932 96.2046 21.201 96.2046 20.7035C96.2046 20.206 96.103 19.7138 95.9063 19.2577C95.7096 18.8015 95.4221 18.3912 95.0613 18.0522C94.7013 17.7132 94.2746 17.453 93.8105 17.2876C93.3455 17.1222 92.8521 17.0552 92.3605 17.0909ZM92.3605 22.6773H89.9538V18.711H92.3971C92.9213 18.711 93.423 18.9209 93.793 19.2946C94.163 19.6682 94.3713 20.175 94.3713 20.7035C94.3713 21.2319 94.163 21.7387 93.793 22.1124C93.423 22.4861 92.9213 22.696 92.3971 22.696L92.3605 22.6773ZM103.002 21.0107C102.374 20.9717 101.749 21.1192 101.203 21.4353C100.657 21.7514 100.215 22.2221 99.9313 22.7891L101.453 23.4315C101.607 23.1517 101.837 22.9227 102.117 22.7723C102.397 22.622 102.714 22.5567 103.03 22.5842C103.249 22.5584 103.47 22.5769 103.682 22.6386C103.894 22.7002 104.091 22.8038 104.263 22.9434C104.435 23.0829 104.577 23.2556 104.682 23.4513C104.787 23.647 104.852 23.8618 104.874 24.0833V24.195C104.32 23.9007 103.702 23.7473 103.076 23.7481C101.435 23.7481 99.7563 24.6792 99.7563 26.3737C99.7721 26.7339 99.8605 27.0872 100.015 27.4124C100.168 27.7377 100.385 28.0283 100.653 28.2672C100.92 28.5061 101.233 28.6882 101.571 28.8027C101.91 28.9173 102.268 28.962 102.624 28.9342C103.057 28.9584 103.488 28.8659 103.874 28.6663C104.26 28.4667 104.585 28.1672 104.819 27.7983H104.874V28.7294H106.534V24.2509C106.534 22.2118 105.003 21.0293 103.039 21.0293L103.002 21.0107ZM102.79 27.3886C102.228 27.3886 101.444 27.1 101.444 26.4017C101.444 25.4706 102.421 25.154 103.288 25.154C103.835 25.1404 104.377 25.2754 104.855 25.5451C104.798 26.0507 104.56 26.518 104.187 26.8604C103.815 27.2028 103.331 27.3971 102.827 27.4072L102.79 27.3886ZM112.583 21.2807L110.61 26.3272H110.555L108.507 21.2807H106.663L109.734 28.3383L107.982 32.2582H109.826L114.501 21.2807H112.583ZM97.0913 28.7294H98.8063V17.0909H97.0913V28.7294Z" fill="white"/>
<path d="M36.168 13.2333V8.6711H37.568C37.8793 8.65619 38.1905 8.70444 38.4825 8.81294C38.7745 8.92144 39.0411 9.08794 39.2662 9.30227C39.4758 9.5221 39.6391 9.78127 39.7469 10.0645C39.8545 10.3478 39.9045 10.6496 39.8935 10.9522C39.9045 11.2549 39.8545 11.5566 39.7469 11.8399C39.6391 12.1232 39.4758 12.3823 39.2662 12.6022C39.0411 12.8165 38.7745 12.9829 38.4825 13.0914C38.1905 13.2 37.8793 13.2482 37.568 13.2333H36.168ZM36.7571 12.6706H37.568C37.7977 12.6823 38.0276 12.6486 38.2441 12.5716C38.4608 12.4946 38.66 12.3759 38.8302 12.222C38.99 12.0524 39.1136 11.8526 39.1938 11.6344C39.274 11.4162 39.309 11.1842 39.2969 10.9522C39.3093 10.7214 39.2744 10.4904 39.1941 10.2734C39.114 10.0564 38.9901 9.85794 38.8302 9.69002C38.6613 9.53377 38.4626 9.41285 38.2457 9.33452C38.0288 9.2561 37.7984 9.22185 37.568 9.23377H36.7571V12.6706Z" fill="white" stroke="white" stroke-width="0.2" stroke-miterlimit="10"/>
<path d="M40.7266 13.2332V8.67114H41.3156V13.2332H40.7266Z" fill="white" stroke="white" stroke-width="0.2" stroke-miterlimit="10"/>
<path d="M43.6556 13.3322C43.3066 13.3265 42.9676 13.2151 42.684 13.0128C42.3671 12.7976 42.1432 12.4719 42.0566 12.1003L42.5921 11.8798C42.6578 12.1274 42.7963 12.3498 42.99 12.5186C43.1727 12.6825 43.4094 12.7744 43.6556 12.7771C43.892 12.785 44.124 12.7126 44.3135 12.5718C44.4012 12.5119 44.4724 12.4312 44.5205 12.3368C44.5686 12.2425 44.5921 12.1377 44.5888 12.0319C44.595 11.9183 44.5731 11.8048 44.5251 11.7015C44.4771 11.5982 44.4045 11.508 44.3135 11.4388C44.0516 11.263 43.762 11.1319 43.4566 11.0511C43.1117 10.965 42.7936 10.7952 42.531 10.5568C42.4288 10.4584 42.3482 10.3401 42.2942 10.2093C42.2403 10.0784 42.2141 9.93793 42.2173 9.79651C42.2175 9.63401 42.2523 9.47343 42.3196 9.32526C42.3868 9.17718 42.485 9.04493 42.6075 8.93735C42.8846 8.71801 43.2251 8.59293 43.5791 8.5806C43.9331 8.56826 44.2817 8.66935 44.5736 8.86885C44.7939 9.0251 44.9596 9.24568 45.0479 9.50001L44.5123 9.72051C44.4616 9.56268 44.3626 9.42451 44.2293 9.3251C44.0626 9.19285 43.8533 9.12535 43.6402 9.13501C43.4305 9.1316 43.2256 9.1986 43.0588 9.3251C42.9846 9.37935 42.9242 9.45043 42.8831 9.53235C42.8418 9.61435 42.8208 9.70485 42.8216 9.79651C42.8206 9.8801 42.8404 9.96268 42.8791 10.037C42.9177 10.1113 42.9742 10.1748 43.0436 10.2223C43.2395 10.3663 43.4596 10.4744 43.6938 10.5417C43.8864 10.5989 44.0754 10.6675 44.2599 10.7469C44.4226 10.8211 44.5765 10.9129 44.7189 11.0207C44.8701 11.1281 44.9911 11.272 45.0708 11.4388C45.1531 11.6231 45.1949 11.8228 45.1932 12.0243C45.1966 12.2303 45.1494 12.4338 45.0555 12.6174C44.9714 12.7838 44.8447 12.9254 44.6883 13.028C44.5388 13.1321 44.3736 13.2117 44.1987 13.2638C44.022 13.3129 43.839 13.336 43.6556 13.3322Z" fill="white" stroke="white" stroke-width="0.2" stroke-miterlimit="10"/>
<path d="M46.6184 13.2325H46.0293V8.67037H47.5593C47.9339 8.66404 48.2961 8.80312 48.5691 9.05821C48.7068 9.17979 48.8159 9.32996 48.8886 9.49821C48.9614 9.66637 48.9959 9.84846 48.9899 10.0315C48.9948 10.2131 48.9597 10.3937 48.887 10.5605C48.8143 10.7274 48.7058 10.8764 48.5691 10.9971C48.2961 11.2521 47.9339 11.3913 47.5593 11.3849H46.6184V13.2325ZM46.6184 10.8222H47.6129C47.7241 10.8273 47.8352 10.8081 47.9383 10.7661C48.0413 10.724 48.134 10.6602 48.2095 10.5789C48.2848 10.5079 48.3447 10.4224 48.3856 10.3276C48.4265 10.2328 48.4476 10.1308 48.4476 10.0276C48.4476 9.92454 48.4265 9.82246 48.3856 9.72771C48.3447 9.63287 48.2848 9.54737 48.2095 9.47637C48.134 9.39512 48.0413 9.33121 47.9383 9.28921C47.8352 9.24712 47.7241 9.22796 47.6129 9.23304H46.6184V10.8222Z" fill="white" stroke="white" stroke-width="0.2" stroke-miterlimit="10"/>
<path d="M53.5032 12.6408C53.2822 12.8605 53.0199 13.0349 52.731 13.1539C52.4423 13.2728 52.1328 13.334 51.8201 13.334C51.5075 13.334 51.198 13.2728 50.9092 13.1539C50.6204 13.0349 50.3581 12.8605 50.1371 12.6408C49.9201 12.4176 49.7512 12.1529 49.6407 11.8626C49.5302 11.5724 49.4804 11.2628 49.4945 10.9528C49.4844 10.6406 49.539 10.3297 49.6549 10.0394C49.7706 9.74895 49.9452 9.48537 50.1677 9.26478C50.3887 9.04503 50.651 8.87062 50.9399 8.7517C51.2286 8.6327 51.5381 8.57153 51.8508 8.57153C52.1634 8.57153 52.4729 8.6327 52.7617 8.7517C53.0504 8.87062 53.3128 9.04503 53.5338 9.26478C53.7548 9.48678 53.9289 9.75053 54.0458 10.0404C54.1627 10.3303 54.2201 10.6405 54.2146 10.9528C54.2197 11.2677 54.1591 11.5803 54.0367 11.8708C53.9142 12.1613 53.7326 12.4234 53.5032 12.6408ZM50.5732 12.2606C50.7344 12.4269 50.9282 12.5587 51.1427 12.6476C51.3572 12.7366 51.5878 12.7808 51.8201 12.7776C52.0527 12.7822 52.2837 12.7386 52.4984 12.6495C52.7131 12.5605 52.9068 12.4281 53.0671 12.2606C53.2435 12.0916 53.3829 11.8883 53.4764 11.6632C53.5699 11.4381 53.6154 11.1962 53.6103 10.9528C53.6194 10.7115 53.5786 10.4709 53.4904 10.246C53.4023 10.021 53.2686 9.81645 53.0977 9.64495C52.9374 9.47745 52.7437 9.34495 52.529 9.25595C52.3143 9.16695 52.0833 9.12337 51.8508 9.12795C51.6184 9.1247 51.3878 9.16895 51.1733 9.25787C50.9588 9.34678 50.7649 9.47853 50.6038 9.64495C50.4354 9.81795 50.3038 10.0229 50.217 10.2476C50.1303 10.4724 50.09 10.7122 50.0989 10.9528C50.09 11.1933 50.1303 11.4332 50.217 11.6579C50.3038 11.8826 50.4354 12.0876 50.6038 12.2606H50.5732Z" fill="white" stroke="white" stroke-width="0.2" stroke-miterlimit="10"/>
<path d="M55.0332 13.2332V8.67114H55.7982L58.0245 12.222V11.34V8.67114H58.6135V13.2332H58.0015L55.7065 9.51514V10.3896V13.2332H55.0332Z" fill="white" stroke="white" stroke-width="0.2" stroke-miterlimit="10"/>
<path d="M59.623 13.2333V8.67116H60.2121V13.2333H59.623ZM60.1739 8.31382H59.6613L59.9903 7.50024H60.6329L60.1739 8.31382Z" fill="white" stroke="white" stroke-width="0.2" stroke-miterlimit="10"/>
<path d="M62.4071 13.2332L60.793 8.67114H61.4432L62.6826 12.3741L64.0366 8.67114H64.6869L63.0191 13.2332H62.4071Z" fill="white" stroke="white" stroke-width="0.2" stroke-miterlimit="10"/>
<path d="M68.0369 9.23381H65.9408V10.6785H67.8304V11.2259H65.9408V12.6706H68.0369V13.2332H65.3594V8.67114H68.0369V9.23381Z" fill="white" stroke="white" stroke-width="0.2" stroke-miterlimit="10"/>
<path d="M68.9551 13.2332V8.67114H69.5671V12.6706H71.5562V13.2332H68.9551Z" fill="white" stroke="white" stroke-width="0.2" stroke-miterlimit="10"/>
<path d="M73.8125 13.2332V8.67114H74.5317L76.7655 12.222V11.34V8.67114H77.3545V13.2332H76.7348L74.4016 9.51514V10.3896V13.2332H73.8125Z" fill="white" stroke="white" stroke-width="0.2" stroke-miterlimit="10"/>
<path d="M82.1596 12.6402C81.9386 12.86 81.6763 13.0343 81.3875 13.1533C81.0987 13.2722 80.7891 13.3335 80.4766 13.3335C80.164 13.3335 79.8545 13.2722 79.5656 13.1533C79.2769 13.0343 79.0145 12.86 78.7936 12.6402C78.5711 12.4196 78.3965 12.156 78.2806 11.8656C78.1649 11.5753 78.1103 11.2644 78.1203 10.9522C78.1103 10.64 78.1649 10.3291 78.2806 10.0388C78.3965 9.74837 78.5711 9.48478 78.7936 9.2642C79.0139 9.04462 79.2756 8.87045 79.5637 8.75162C79.8519 8.63278 80.1608 8.57153 80.4727 8.57153C80.7847 8.57153 81.0936 8.63278 81.3818 8.75162C81.6699 8.87045 81.9316 9.04462 82.152 9.2642C82.3758 9.48412 82.5518 9.74745 82.669 10.0379C82.7861 10.3282 82.8418 10.6395 82.8328 10.9522C82.8428 11.2644 82.7883 11.5753 82.6725 11.8656C82.5566 12.156 82.3821 12.4196 82.1596 12.6402ZM79.2296 12.26C79.3926 12.4241 79.5867 12.5545 79.8008 12.6435C80.0149 12.7324 80.2446 12.7782 80.4766 12.7782C80.7086 12.7782 80.9383 12.7324 81.1524 12.6435C81.3664 12.5545 81.5606 12.4241 81.7236 12.26C81.893 12.0875 82.0257 11.8827 82.1138 11.658C82.2019 11.4333 82.2435 11.1932 82.2361 10.9522C82.2435 10.7111 82.2019 10.4711 82.1138 10.2465C82.0257 10.0217 81.893 9.81695 81.7236 9.64437C81.5606 9.4802 81.3664 9.34987 81.1524 9.26095C80.9383 9.17203 80.7086 9.1262 80.4766 9.1262C80.2446 9.1262 80.0149 9.17203 79.8008 9.26095C79.5867 9.34987 79.3926 9.4802 79.2296 9.64437C79.0656 9.81945 78.9386 10.0254 78.8557 10.25C78.773 10.4745 78.7362 10.7133 78.7476 10.9522C78.7362 11.1911 78.773 11.4299 78.8557 11.6545C78.9386 11.879 79.0656 12.0849 79.2296 12.26Z" fill="white" stroke="white" stroke-width="0.2" stroke-miterlimit="10"/>
<path d="M9.87182 9.51058C9.60691 9.84233 9.47624 10.2636 9.50615 10.6892V29.3104C9.4779 29.7401 9.61824 30.1637 9.89674 30.489L9.95491 30.5563L20.2254 20.1261V19.8735L9.92999 9.45166L9.87182 9.51058Z" fill="url(#paint0_linear_9340_54036)"/>
<path d="M23.6314 23.6028L20.2246 20.1261V19.8735L23.6314 16.3967L23.7063 16.4472L27.7862 18.7875C28.9495 19.4526 28.9495 20.547 27.7862 21.2204L23.7229 23.5606L23.6314 23.6028Z" fill="url(#paint1_linear_9340_54036)"/>
<path d="M23.7313 23.5602L20.2248 19.9993L9.87109 30.4884C10.1059 30.7002 10.4065 30.822 10.7207 30.8328C11.0348 30.8435 11.3428 30.7426 11.5912 30.5474L23.7313 23.5602Z" fill="url(#paint2_linear_9340_54036)"/>
<path d="M23.7314 16.4471L11.5912 9.45989C11.3444 9.26197 11.0367 9.15856 10.7221 9.16781C10.4075 9.17706 10.1062 9.29831 9.87109 9.51039L20.2248 19.9996L23.7314 16.4471Z" fill="url(#paint3_linear_9340_54036)"/>
<path opacity="0.2" d="M23.6317 23.4768L11.5912 30.4219C11.3518 30.6049 11.0601 30.7039 10.7603 30.7039C10.4603 30.7039 10.1687 30.6049 9.92926 30.4219L9.87109 30.4808L9.92926 30.5481C10.1687 30.7311 10.4603 30.8301 10.7603 30.8301C11.0601 30.8301 11.3518 30.7311 11.5912 30.5481L23.7313 23.561L23.6317 23.4768Z" fill="black"/>
<path opacity="0.12" d="M9.87043 30.3708C9.60351 30.0369 9.47268 29.6123 9.50476 29.1838V29.3101C9.47651 29.7398 9.61685 30.1633 9.89535 30.4887L9.95351 30.4298L9.87043 30.3708Z" fill="black"/>
<path opacity="0.12" d="M27.7876 21.0937L23.6328 23.476L23.7076 23.5602L27.7876 21.2115C28.0284 21.1083 28.2373 20.9413 28.3923 20.7279C28.5473 20.5146 28.6427 20.2629 28.6684 19.9993C28.6165 20.2389 28.5096 20.4627 28.3566 20.6528C28.2036 20.8428 28.0087 20.9938 27.7876 21.0937Z" fill="black"/>
<path opacity="0.25" d="M11.5916 9.5774L27.7868 18.9049C28.0079 19.0047 28.2029 19.1557 28.3559 19.3458C28.5089 19.5359 28.6157 19.7597 28.6676 19.9992C28.6419 19.7357 28.5466 19.4839 28.3916 19.2706C28.2366 19.0572 28.0276 18.8902 27.7868 18.7871L11.5916 9.45957C10.4365 8.78615 9.50586 9.34174 9.50586 10.6887V10.8149C9.50586 9.46799 10.4365 8.9124 11.5916 9.5774Z" fill="white"/>
</g>
<defs>
<linearGradient id="paint0_linear_9340_54036" x1="19.3114" y1="10.4956" x2="5.1867" y2="24.4377" gradientUnits="userSpaceOnUse">
<stop stop-color="#00A0FF"/>
<stop offset="0.01" stop-color="#00A1FF"/>
<stop offset="0.26" stop-color="#00BEFF"/>
<stop offset="0.51" stop-color="#00D2FF"/>
<stop offset="0.76" stop-color="#00DFFF"/>
<stop offset="1" stop-color="#00E3FF"/>
</linearGradient>
<linearGradient id="paint1_linear_9340_54036" x1="29.3069" y1="19.9997" x2="9.20619" y2="19.9997" gradientUnits="userSpaceOnUse">
<stop stop-color="#FFE000"/>
<stop offset="0.41" stop-color="#FFBD00"/>
<stop offset="0.78" stop-color="#FFA500"/>
<stop offset="1" stop-color="#FF9C00"/>
</linearGradient>
<linearGradient id="paint2_linear_9340_54036" x1="21.8285" y1="21.9355" x2="2.67022" y2="40.8379" gradientUnits="userSpaceOnUse">
<stop stop-color="#FF3A44"/>
<stop offset="1" stop-color="#C31162"/>
</linearGradient>
<linearGradient id="paint3_linear_9340_54036" x1="7.26195" y1="3.31453" x2="15.8142" y2="11.7563" gradientUnits="userSpaceOnUse">
<stop stop-color="#32A071"/>
<stop offset="0.07" stop-color="#2DA771"/>
<stop offset="0.48" stop-color="#15CF74"/>
<stop offset="0.8" stop-color="#06E775"/>
<stop offset="1" stop-color="#00F076"/>
</linearGradient>
<clipPath id="clip0_9340_54036">
<rect width="123.333" height="40" fill="white" transform="translate(0.333984 0.000244141)"/>
</clipPath>
</defs>
</svg>
