<svg width="40" height="40" viewBox="0 0 40 40" fill="none" xmlns="http://www.w3.org/2000/svg">
<g clip-path="url(#clip0_9340_54004)">
<path d="M29.8004 29.8001C30.4004 29.2001 30.8004 28.6001 31.1337 27.8001C31.4671 27.0001 31.6004 26.1335 31.6671 25.0001C31.7337 23.7335 31.7337 23.2668 31.7337 20.0668C31.7337 16.8001 31.7337 16.4001 31.6671 15.1335C31.6004 14.0001 31.4671 13.1335 31.1337 12.3335C30.8004 11.5335 30.4004 10.9335 29.8004 10.3335C29.2004 9.73348 28.6004 9.33348 27.8004 9.00015C27.0004 8.66681 26.1337 8.53348 25.0004 8.46681C23.7337 8.40015 23.2671 8.40015 20.0671 8.40015C16.8004 8.40015 16.4004 8.40015 15.1337 8.46681C14.0004 8.53348 13.1337 8.66681 12.3337 9.00015C11.5337 9.33348 10.9337 9.73348 10.3337 10.3335C9.73372 10.9335 9.33372 11.5335 9.00039 12.3335C8.66706 13.1335 8.53372 14.0001 8.46706 15.1335C8.40039 16.4001 8.40039 16.8668 8.40039 20.0668C8.40039 23.3335 8.40039 23.7335 8.46706 25.0001C8.53372 26.1335 8.66706 27.0001 9.00039 27.8001C9.33372 28.6001 9.73372 29.2001 10.3337 29.8001C10.9337 30.4001 11.5337 30.8001 12.3337 31.1335C13.1337 31.4668 14.0004 31.6001 15.1337 31.6668C16.4004 31.7335 16.8671 31.7335 20.0671 31.7335C23.3337 31.7335 23.7337 31.7335 25.0004 31.6668C26.1337 31.6001 27.0004 31.4668 27.8004 31.1335C28.5337 30.8001 29.2004 30.4001 29.8004 29.8001ZM24.8671 30.0668C23.6004 30.1335 23.2004 30.1335 20.0004 30.1335C16.8004 30.1335 16.4004 30.1335 15.1337 30.0668C13.8671 30.0001 13.2004 29.8001 12.8004 29.6001C12.2004 29.4001 11.8004 29.1335 11.3337 28.6668C10.8671 28.2001 10.6004 27.8001 10.4004 27.2001C10.2004 26.7335 10.0004 26.0668 9.93372 24.8668V24.8001C9.86706 23.5335 9.86706 23.1335 9.86706 20.0001C9.86706 16.8001 9.86706 16.4001 9.93372 15.1335C10.0004 13.8668 10.2004 13.2001 10.4004 12.8001C10.6004 12.2668 10.8671 11.8001 11.3337 11.3335C11.8004 10.8668 12.2004 10.6001 12.8004 10.4001C13.2671 10.2001 13.9337 10.0001 15.1337 9.93348H15.2004C16.4671 9.86681 16.8671 9.86681 20.0004 9.86681C23.2004 9.86681 23.6004 9.86681 24.8671 9.93348C26.1337 10.0001 26.8004 10.2001 27.2004 10.4001C27.7337 10.6001 28.2004 10.8668 28.6671 11.3335C29.1337 11.8001 29.4004 12.2001 29.6004 12.8001C29.8004 13.2668 30.0004 13.9335 30.0671 15.1335V15.2001C30.1337 16.4668 30.1337 16.8668 30.1337 20.0001C30.1337 23.2001 30.1337 23.6001 30.0671 24.8001V24.8668C30.0004 26.1335 29.8004 26.8001 29.6004 27.2001C29.4004 27.8001 29.0671 28.2001 28.6671 28.6668C28.2004 29.1335 27.8004 29.4001 27.2004 29.6001C26.7337 29.8001 26.0671 30.0001 24.8671 30.0668Z" fill="white"/>
<path d="M19.9995 14.1335C16.7328 14.1335 14.1328 16.8002 14.1328 20.0002C14.1328 23.2002 16.7995 25.8669 19.9995 25.8669C23.1995 25.8669 25.8661 23.2002 25.8661 20.0002C25.8661 16.8002 23.2661 14.1335 19.9995 14.1335ZM19.9995 24.2669C17.6661 24.2669 15.7328 22.3335 15.7328 20.0002C15.7328 17.6669 17.6661 15.7335 19.9995 15.7335C22.3328 15.7335 24.2661 17.6669 24.2661 20.0002C24.2661 22.3335 22.3328 24.2669 19.9995 24.2669Z" fill="white"/>
<path d="M26.4009 14.7335C27.0268 14.7335 27.5342 14.2261 27.5342 13.6001C27.5342 12.9742 27.0268 12.4668 26.4009 12.4668C25.775 12.4668 25.2676 12.9742 25.2676 13.6001C25.2676 14.2261 25.775 14.7335 26.4009 14.7335Z" fill="white"/>
</g>
<defs>
<clipPath id="clip0_9340_54004">
<rect width="24" height="24" fill="white" transform="translate(8 8.00024)"/>
</clipPath>
</defs>
</svg>
