<svg width="40" height="40" viewBox="0 0 40 40" fill="none" xmlns="http://www.w3.org/2000/svg">
<g clip-path="url(#clip0_9340_54010)">
<path d="M30.4 27.2002V12.8002C30.4 11.0669 28.9333 9.60024 27.2 9.60024H12.8C11.0667 9.60024 9.6 11.0669 9.6 12.8002V27.2002C9.6 28.9336 11.0667 30.4002 12.8 30.4002H27.2C28.9333 30.4002 30.4 28.9336 30.4 27.2002ZM27.2 8.00024C29.8667 8.00024 32 10.1336 32 12.8002V27.2002C32 29.8669 29.8667 32.0002 27.2 32.0002H12.8C10.1333 32.0002 8 29.8669 8 27.2002V12.8002C8 10.1336 10.1333 8.00024 12.8 8.00024H27.2Z" fill="white"/>
<path d="M14.1328 26.0002H16.5995V18.0002H14.1328V26.0002Z" fill="white"/>
<path d="M15.3336 14.0002C14.9336 14.0002 14.6003 14.1336 14.3336 14.4002C14.0669 14.6669 13.9336 15.0002 13.9336 15.4002C13.9336 15.8002 14.0669 16.1336 14.3336 16.4002C14.6003 16.6669 14.9336 16.8002 15.3336 16.8002C15.7336 16.8002 16.0669 16.6669 16.3336 16.4002C16.6003 16.1336 16.7336 15.8002 16.7336 15.4002C16.7336 15.0002 16.6003 14.6669 16.3336 14.4002C16.0669 14.2002 15.7336 14.0002 15.3336 14.0002Z" fill="white"/>
<path d="M25.5337 18.867C25.3337 18.5336 25.0004 18.267 24.6671 18.067C24.2671 17.867 23.8004 17.8003 23.1337 17.8003C22.8671 17.8003 22.5337 17.867 22.3337 17.9336C22.1337 18.0003 21.8671 18.1336 21.6671 18.2003C21.4671 18.3336 21.2671 18.467 21.1337 18.6003C21.0004 18.7336 20.8671 18.9336 20.8004 19.067V18.0003H18.4004V26.0003H20.8671V22.0003C20.8671 21.7336 20.8671 21.467 20.9337 21.267C21.0004 21.0003 21.0671 20.8003 21.1337 20.6003C21.2671 20.4003 21.4004 20.267 21.6004 20.1336C21.8004 20.0003 22.0671 19.9336 22.4004 19.9336C22.7337 19.9336 22.9337 20.0003 23.1337 20.1336C23.3337 20.267 23.4004 20.467 23.5337 20.667C23.6004 20.867 23.6671 21.1336 23.6671 21.3336C23.6671 21.6003 23.6671 21.8003 23.6671 22.067V26.0003H26.1337V21.6003C26.1337 21.067 26.0671 20.5336 26.0004 20.1336C25.9337 19.7336 25.7337 19.2003 25.5337 18.867Z" fill="white"/>
</g>
<defs>
<clipPath id="clip0_9340_54010">
<rect width="24" height="24" fill="white" transform="translate(8 8.00024)"/>
</clipPath>
</defs>
</svg>
