<svg width="18" height="18" viewBox="0 0 18 18" fill="none" xmlns="http://www.w3.org/2000/svg">
<g clip-path="url(#clip0_9340_53888)">
<path d="M3.27257 0.000244141C2.82308 0.000244141 2.37358 0.20002 2.12386 0.599571C-1.0226 4.89475 -0.672994 10.938 3.17269 14.7836C5.32027 16.9312 8.11713 17.98 10.914 17.98C13.2114 17.98 15.4589 17.2808 17.4067 15.8325C18.1059 15.333 18.2058 14.3341 17.6065 13.7348L14.2103 10.3386C13.8607 9.98902 13.3612 9.78925 12.9117 9.78925C12.4123 9.78925 11.9628 9.98902 11.6132 10.3386L9.46562 12.3364C8.56663 12.0867 7.71758 11.6372 7.01837 10.938C6.31915 10.2387 5.81971 9.3897 5.61994 8.49071L7.66764 6.49295C8.41679 5.74379 8.41679 4.59508 7.66764 3.84592L4.22151 0.399795C3.97179 0.150076 3.62218 0.000244141 3.27257 0.000244141ZM3.27257 1.1989C3.32252 1.1989 3.37246 1.24884 3.42241 1.24884L6.81859 4.64503C6.96842 4.79486 7.01837 4.94469 7.01837 5.09452C7.01837 5.2943 6.96842 5.44413 6.81859 5.54402L4.77089 7.54177C4.47123 7.94132 4.37134 8.39082 4.47123 8.79037C4.77089 9.93908 5.37022 10.938 6.21926 11.787C7.06831 12.6361 8.06719 13.2354 9.2159 13.535C9.31578 13.585 9.41567 13.585 9.51556 13.585C9.81522 13.585 10.1149 13.4851 10.3646 13.2354L12.4123 11.1877C12.5621 11.0378 12.712 10.9879 12.8618 10.9879C13.0616 10.9879 13.2114 11.0378 13.3113 11.1877L16.7075 14.5839C16.7075 14.5839 16.7574 14.6338 16.7574 14.7337C16.7574 14.7836 16.7574 14.8336 16.6575 14.8835C14.9594 16.1321 12.9617 16.7814 10.864 16.7814C8.26696 16.7814 5.81971 15.7825 3.97179 13.9346C0.625547 10.5384 0.225996 5.14447 3.0728 1.29879C3.12274 1.1989 3.22263 1.1989 3.27257 1.1989Z" fill="white"/>
</g>
<defs>
<clipPath id="clip0_9340_53888">
<rect width="18" height="18" fill="white" transform="translate(0 0.000244141)"/>
</clipPath>
</defs>
</svg>
