<svg width="18" height="18" viewBox="0 0 18 18" fill="none" xmlns="http://www.w3.org/2000/svg">
<path d="M7.95002 2.25024C7.95002 1.65025 8.40001 1.20025 9 1.20025C9.59998 1.20025 10.05 1.65025 10.05 2.25024C10.05 2.85024 9.59998 3.30024 9 3.30024C8.40001 3.30024 7.95002 2.85024 7.95002 2.25024ZM9.09999 4.50024C10.3 4.45024 11.25 3.45025 11.25 2.25024C11.25 1.00024 10.25 0.000244141 9 0.000244141C7.74999 0.000244141 6.75 1.00024 6.75 2.25024C6.75 3.45025 7.69999 4.45024 8.90001 4.50024C6.44998 4.55024 4.5 6.55026 4.5 9.00024V11.2502H5.70002V9.00024C5.70002 7.20024 7.2 5.70026 9 5.70026C10.8 5.70026 12.3 7.20024 12.3 9.00024V11.2502H13.5V9.00024C13.5 6.55026 11.55 4.55024 9.09999 4.50024Z" fill="white"/>
<path d="M7.50038 18.0002C7.85039 18.0002 8.10041 17.7502 8.10041 17.4003V9.60023C8.10041 9.25026 7.85039 9.00024 7.50038 9.00024C7.15041 9.00024 6.90039 9.25026 6.90039 9.60023V17.4003C6.90039 17.7502 7.15041 18.0002 7.50038 18.0002Z" fill="white"/>
<path d="M10.5004 18.0002C10.8504 18.0002 11.1004 17.7502 11.1004 17.4003V9.60023C11.1004 9.25026 10.8504 9.00024 10.5004 9.00024C10.1504 9.00024 9.90039 9.25026 9.90039 9.60023V17.4003C9.90039 17.7502 10.1504 18.0002 10.5004 18.0002Z" fill="white"/>
</svg>
