<svg width="18" height="18" viewBox="0 0 18 18" fill="none" xmlns="http://www.w3.org/2000/svg">
<g clip-path="url(#clip0_9340_53906)">
<path d="M9 10.1671C7.25 10.1671 5.79165 8.70872 5.79165 6.95872C5.79165 5.20872 7.25 3.75041 9 3.75041C10.75 3.75041 12.2084 5.20872 12.2084 6.95872C12.2084 8.70872 10.75 10.1671 9 10.1671ZM9 2.58374C6.56945 2.58374 4.625 4.52819 4.625 6.95872C4.625 9.38932 6.56945 11.3337 9 11.3337C11.4306 11.3337 13.375 9.38932 13.375 6.95872C13.375 4.52819 11.4306 2.58374 9 2.58374Z" fill="white"/>
<path d="M8.99934 16.0002C6.56879 13.3266 3.45769 9.14609 3.45769 7.00719C3.45769 3.94469 5.93684 1.41691 8.99934 1.41691C12.0618 1.41691 14.541 3.94469 14.541 7.00719C14.541 9.14609 11.4299 13.3266 8.99934 16.0002ZM8.99934 0.250244C5.30489 0.250244 2.29102 3.26413 2.29102 7.05579C2.29102 9.00024 4.08963 11.8197 5.83964 14.0558C5.93684 14.2016 5.83964 14.3474 5.69379 14.3474H2.48546C2.38824 14.3474 2.29102 14.4447 2.29102 14.5419V15.3197C2.29102 15.4169 2.38824 15.5141 2.48546 15.5141H6.95769C7.00629 15.5141 7.05489 15.5627 7.10354 15.5627C7.92989 16.5349 8.61044 17.2641 8.85354 17.5558C8.95074 17.653 9.04794 17.653 9.14519 17.5558C9.43684 17.2641 10.1174 16.5349 10.8952 15.5627C10.9438 15.5141 10.9924 15.5141 11.041 15.5141H15.5132C15.6104 15.5141 15.7077 15.4169 15.7077 15.3197V14.5419C15.7077 14.4447 15.6104 14.3474 15.5132 14.3474H12.3049C12.1591 14.3474 12.0618 14.153 12.1591 14.0558C13.9091 11.8197 15.7077 9.00024 15.7077 7.05579C15.7077 3.26413 12.6938 0.250244 8.99934 0.250244Z" fill="white"/>
</g>
<defs>
<clipPath id="clip0_9340_53906">
<rect width="18" height="18" fill="white" transform="translate(0 0.000244141)"/>
</clipPath>
</defs>
</svg>
