<svg width="18" height="18" viewBox="0 0 18 18" fill="none" xmlns="http://www.w3.org/2000/svg">
<path d="M9 18.0002C4.0099 18.0002 0 13.9658 0 9.04458C0 4.1234 4.0099 0.000244141 9 0.000244141C13.9901 0.000244141 18 4.03473 18 8.95591C18 13.8771 13.9901 18.0002 9 18.0002ZM9 0.886945C4.5 0.886945 0.891087 4.52241 0.891087 9.00025C0.891087 13.4781 4.54456 17.0692 9 17.0692C13.5 17.0692 17.1089 13.4337 17.1089 9.00025C17.1089 4.52241 13.5 0.886945 9 0.886945Z" fill="white"/>
<path d="M5.83594 6.82782C5.83594 6.4288 5.9696 6.02979 6.23693 5.58644C6.50425 5.18742 6.86069 4.83274 7.39534 4.56673C7.88544 4.25639 8.46465 4.16772 9.13297 4.16772C9.71217 4.16772 10.2914 4.25639 10.7815 4.5224C11.2716 4.78841 11.628 5.05442 11.8508 5.45343C12.1181 5.85245 12.2518 6.25146 12.2518 6.73915C12.2518 7.09383 12.2072 7.44851 12.0736 7.67018C11.9399 7.93619 11.7617 8.15787 11.5389 8.37954C11.2716 8.55688 11.0043 8.91156 10.4696 9.35491C10.3359 9.48792 10.2023 9.62092 10.1132 9.70959C10.0241 9.79826 9.9795 9.88693 9.93495 10.0199C9.89039 10.1086 9.84584 10.1529 9.84584 10.2859C9.84584 10.419 9.80128 10.552 9.75673 10.7293C9.66762 11.1726 9.40029 11.35 8.9993 11.35C8.82109 11.35 8.59831 11.3057 8.46465 11.1726C8.33099 11.0396 8.19732 10.818 8.19732 10.552C8.19732 10.1973 8.24188 9.93127 8.33099 9.62092C8.4201 9.35491 8.59831 9.13324 8.77653 8.91156C8.95475 8.73422 9.22208 8.46821 9.53396 8.2022C9.84584 7.93619 9.9795 7.80319 10.1132 7.67018C10.2023 7.58151 10.3805 7.40417 10.425 7.27117C10.5142 7.13816 10.5587 6.96082 10.5587 6.78348C10.5587 6.4288 10.425 6.16279 10.1577 5.94112C9.89039 5.67511 9.57851 5.58644 9.17752 5.58644C8.73198 5.58644 8.37554 5.67511 8.15277 5.94112C7.97455 6.20713 7.75178 6.51747 7.61812 6.96082C7.48445 7.44851 7.21713 7.71452 6.77158 7.71452C6.50425 7.71452 6.32604 7.62585 6.19237 7.44851C5.88049 7.22683 5.83594 7.04949 5.83594 6.82782ZM8.91019 13.8327C8.64287 13.8327 8.4201 13.7441 8.19732 13.5667C8.01911 13.4337 7.88544 13.1677 7.88544 12.8574C7.88544 12.5914 7.97455 12.3697 8.19732 12.148C8.37554 11.9707 8.59831 11.8377 8.91019 11.8377C9.17752 11.8377 9.40029 11.9263 9.62307 12.148C9.80128 12.3254 9.93495 12.547 9.93495 12.8574C9.93495 13.1677 9.84584 13.3894 9.62307 13.5667C9.40029 13.7441 9.17752 13.8327 8.91019 13.8327Z" fill="white"/>
</svg>
