<svg width="40" height="40" viewBox="0 0 40 40" fill="none" xmlns="http://www.w3.org/2000/svg">
<g clip-path="url(#clip0_9340_54024)">
<path d="M29.5947 14.1812C29.4708 13.8098 29.2233 13.7479 28.6661 13.686C28.109 13.6241 27.6756 13.5002 27.1804 13.3145C26.128 12.8193 25.3851 11.9526 25.0756 10.8383C25.0137 10.6526 24.9518 10.2812 24.8898 9.97167C24.828 9.41453 24.7661 9.16692 24.4566 9.04311C24.2708 8.9812 24.147 8.9812 22.4137 8.9812C20.7423 8.9812 20.4947 8.9812 20.3708 9.04311C20.247 9.10501 20.1233 9.16692 20.0613 9.29072L19.9375 9.47644L19.8756 24.3335L19.8137 24.5812C19.5661 25.3241 18.947 25.8812 18.2042 26.1288C17.8327 26.2527 17.3375 26.2527 16.9661 26.1288C15.9756 25.8193 15.2946 24.9527 15.2946 23.9002C15.2946 23.2193 15.4804 22.7241 15.9756 22.2288C16.4089 21.7955 16.7804 21.6098 17.5232 21.5478C17.9566 21.486 18.0804 21.4241 18.2661 21.1764C18.3899 21.0527 18.3899 20.9907 18.3899 19.0717C18.3899 17.2145 18.3899 17.0907 18.2661 16.9669C18.0185 16.5955 17.8946 16.5955 17.2756 16.5955C16.0994 16.5955 14.7994 17.0288 13.747 17.6479C12.3232 18.5145 11.2089 20.0002 10.7137 21.486C9.90893 23.7145 10.2804 26.0669 11.6423 28.0478C12.0137 28.5431 12.8185 29.4098 13.3756 29.7812C14.6137 30.6478 16.0994 31.1431 17.647 31.1431C19.2566 31.1431 20.8041 30.586 22.1041 29.5955C23.3423 28.605 24.2708 27.2431 24.7041 25.7574C24.9518 24.8907 24.9518 24.705 24.9518 20.9907C24.9518 19.505 24.9518 18.2669 24.9518 17.7717L25.1994 17.8955C25.8184 18.1431 26.4994 18.3907 27.1804 18.5145C27.7994 18.6383 28.8518 18.7622 29.1613 18.7002C29.409 18.6383 29.6565 18.3907 29.7804 18.1431C29.8423 18.0193 29.8423 16.7193 29.8423 16.1622C29.7184 14.3669 29.7184 14.3669 29.5947 14.1812ZM13.8089 22.9717C13.6851 23.405 13.6851 24.2717 13.8089 24.7669C14.1185 25.9431 14.9851 26.9335 16.0994 27.3669C16.5946 27.5527 16.9661 27.6764 17.5851 27.6764C18.1423 27.6764 18.5137 27.6145 19.0089 27.4288C19.9994 27.0574 20.8041 26.1907 21.1756 25.2002V25.1384C21.4233 24.5193 21.4233 24.5193 21.4233 17.9574V10.405H22.4137C22.909 10.405 23.2184 10.405 23.4041 10.405C23.4661 10.6526 23.5898 11.1479 23.6518 11.3336C24.0851 12.6955 25.1375 13.9336 26.4994 14.6145C26.8708 14.8002 27.5518 15.0479 27.9851 15.1098L28.2327 15.1717V17.0907H28.109C26.9947 16.9669 25.7566 16.5336 24.828 15.9145C24.5184 15.7288 24.3947 15.6669 24.209 15.6669H24.147C23.8375 15.6669 23.6518 15.7907 23.528 16.1002C23.4041 16.286 23.4041 16.4098 23.4041 20.3098C23.4041 23.5288 23.4041 24.3955 23.3423 24.705C23.0947 26.3145 22.1661 27.7384 20.8041 28.6669C20.3708 28.9764 20.0613 29.1002 19.5661 29.286C18.8851 29.5335 18.5137 29.5955 17.7089 29.5955H17.5232C16.9042 29.5955 16.7185 29.5955 16.347 29.4717C14.0566 28.9145 12.3851 27.2431 11.8899 24.8907C11.7661 24.3955 11.7661 23.2812 11.8899 22.786C12.0137 22.2907 12.1994 21.6717 12.3851 21.3002C12.9423 20.186 13.8708 19.2574 14.9232 18.7622C15.4804 18.4526 16.4089 18.205 16.8423 18.1431V20.0621L16.6566 20.1241C15.2327 20.4335 14.1185 21.486 13.8089 22.9717Z" fill="white"/>
</g>
<defs>
<clipPath id="clip0_9340_54024">
<rect width="22.2857" height="22.2857" fill="white" transform="translate(8.85742 8.85742)"/>
</clipPath>
</defs>
</svg>
