<svg width="40" height="40" viewBox="0 0 40 40" fill="none" xmlns="http://www.w3.org/2000/svg">
<path d="M32 19.6004C32 17.6004 31.7333 15.6004 31.2667 13.6004C30.8667 12.1337 29.2667 10.6004 27.7333 10.267C25.2 9.80036 22.6 9.53369 20.0667 9.53369H20H19.9333C17.4 9.53369 14.8 9.80036 12.2667 10.267C10.8 10.6004 9.13333 12.1337 8.73333 13.6004C8.33333 15.467 8.06667 17.4004 8 19.3337C8 19.8004 8 20.267 8 20.667C8.06667 22.6004 8.26667 24.5337 8.73333 26.4004C9.13333 27.867 10.7333 29.467 12.2667 29.7337C14.8 30.2004 17.4 30.467 20 30.467C22.5333 30.467 25.1333 30.2004 27.7333 29.7337C29.2 29.4004 30.8667 27.867 31.2667 26.4004C31.7333 24.467 32 22.467 32 20.5337C32 20.267 32 19.9337 32 19.6004ZM29.6667 26.067C29.4667 26.9337 28.2667 28.067 27.4 28.267C24.9333 28.7337 22.4667 29.0004 20 29.0004C17.5333 29.0004 15.0667 28.7337 12.6 28.267C11.7333 28.067 10.5333 27.0004 10.3333 26.1337C9.33333 22.067 9.33333 17.9337 10.3333 13.9337C10.5333 13.067 11.7333 11.9337 12.6 11.7337C15.0667 11.267 17.5333 11.0004 20 11.0004C22.4667 11.0004 24.9333 11.267 27.4 11.7337C28.2667 11.9337 29.4667 13.0004 29.6667 13.867C30.6667 17.9337 30.6667 22.067 29.6667 26.067Z" fill="white"/>
<path d="M17.2004 16.6003C16.6671 16.9337 16.4004 17.467 16.4004 18.067V22.0003C16.4004 22.6003 16.7337 23.1337 17.2004 23.467C17.4671 23.667 17.8004 23.7337 18.0671 23.7337C18.3337 23.7337 18.6004 23.667 18.8004 23.5337L22.6671 21.6003C23.2671 21.3337 23.6004 20.7337 23.6004 20.067C23.6004 19.4003 23.2671 18.867 22.6671 18.5337L18.8004 16.6003C18.2671 16.267 17.6671 16.267 17.2004 16.6003Z" fill="white"/>
</svg>
